<?xml version="1.0" standalone="no"?>
<!DOCTYPE svg PUBLIC "-//W3C//DTD SVG 20010904//EN"
 "http://www.w3.org/TR/2001/REC-SVG-20010904/DTD/svg10.dtd">
<svg version="1.0" xmlns="http://www.w3.org/2000/svg"
 width="791.000000pt" height="791.000000pt" viewBox="0 0 791.000000 791.000000"
 preserveAspectRatio="xMidYMid meet">
<metadata>
Created by potrace 1.14, written by Peter Selinger 2001-2017
</metadata>
<g transform="translate(0.000000,791.000000) scale(0.100000,-0.100000)"
fill="#000000" stroke="none">
<path d="M3748 7906 c-1 -2 -49 -6 -106 -10 -56 -4 -108 -9 -115 -11 -6 -2
-39 -6 -72 -9 -33 -4 -73 -9 -90 -11 -16 -3 -56 -10 -87 -15 -32 -6 -68 -12
-80 -15 -13 -2 -36 -7 -53 -10 -16 -3 -77 -17 -135 -32 -1490 -367 -2638
-1576 -2929 -3083 -31 -163 -41 -236 -58 -415 -16 -165 -7 -695 13 -798 2 -11
6 -40 9 -66 3 -25 10 -73 16 -106 5 -33 12 -70 14 -82 52 -314 178 -694 335
-1018 143 -293 314 -554 548 -835 72 -86 357 -368 457 -451 547 -457 1215
-767 1880 -873 271 -43 380 -51 670 -51 224 0 401 10 525 31 19 3 51 7 70 10
19 2 93 16 164 30 1264 251 2317 1092 2846 2274 54 119 60 134 129 335 38 109
122 417 134 490 13 78 27 162 31 182 3 12 8 53 11 90 4 37 9 77 11 88 25 129
23 720 -2 848 -2 12 -6 45 -9 72 -40 363 -174 820 -345 1180 -329 693 -843
1267 -1503 1679 -120 75 -353 198 -467 246 -41 18 -89 39 -107 47 -123 53
-460 162 -584 187 -127 26 -282 56 -319 61 -25 3 -56 8 -70 10 -14 2 -54 7
-90 11 -36 4 -76 8 -90 10 -35 4 -547 13 -552 10z m567 -189 c11 -3 49 -8 85
-11 71 -8 123 -16 290 -46 286 -51 669 -183 970 -335 450 -227 811 -511 1175
-926 206 -234 464 -649 588 -944 66 -157 163 -437 182 -525 2 -8 12 -53 24
-100 18 -76 28 -126 46 -225 38 -208 50 -371 50 -655 0 -256 -5 -336 -35 -540
-118 -802 -485 -1534 -1058 -2108 -150 -150 -184 -180 -322 -290 -346 -277
-755 -499 -1160 -632 -77 -25 -220 -68 -250 -75 -190 -41 -358 -74 -410 -80
-36 -4 -72 -9 -81 -10 -18 -4 -145 -16 -223 -21 -145 -10 -430 -5 -581 11 -22
2 -71 7 -110 10 -38 4 -72 8 -75 10 -3 2 -33 7 -65 10 -33 4 -63 9 -66 11 -4
2 -24 6 -45 10 -87 12 -332 77 -474 124 -552 184 -1032 478 -1450 887 -80 79
-168 171 -197 205 -28 35 -61 73 -73 85 -50 54 -218 288 -293 408 -251 404
-443 905 -512 1333 -3 17 -7 44 -10 60 -15 94 -25 166 -30 232 -4 41 -9 93
-11 115 -5 51 -5 458 0 505 2 19 7 71 11 115 3 44 8 87 10 95 2 8 6 40 10 71
3 31 8 67 11 80 2 13 7 40 10 59 3 19 14 76 25 125 132 609 403 1158 808 1640
97 115 311 332 420 425 309 264 690 496 1041 634 52 21 104 42 115 46 164 70
557 167 790 196 22 3 46 7 52 9 7 3 64 7 125 11 62 3 115 8 118 11 6 6 548 -4
575 -10z"/>
<path d="M3907 7624 c-1 -1 -73 -4 -161 -8 -87 -4 -161 -8 -165 -10 -3 -2 -33
-7 -66 -10 -57 -6 -73 -8 -155 -22 -19 -3 -46 -8 -60 -10 -14 -3 -47 -9 -75
-14 -27 -6 -60 -12 -72 -14 -91 -18 -398 -110 -483 -145 -25 -11 -85 -36 -135
-56 -49 -21 -143 -64 -208 -96 -979 -485 -1698 -1399 -1941 -2464 -13 -60 -27
-128 -31 -150 -5 -40 -10 -67 -20 -115 -3 -14 -7 -47 -10 -75 -3 -27 -7 -63
-9 -80 -24 -167 -24 -664 -1 -785 2 -9 6 -41 9 -71 3 -30 8 -65 10 -79 3 -14
7 -43 11 -65 3 -22 15 -85 26 -140 146 -702 488 -1335 994 -1840 121 -121 230
-221 276 -252 13 -9 26 -19 29 -22 25 -29 202 -156 330 -237 440 -282 1015
-489 1500 -539 30 -3 64 -8 75 -10 113 -22 589 -22 775 1 461 56 856 172 1235
361 1080 538 1828 1570 2000 2758 3 23 7 50 9 60 2 11 7 63 11 115 4 52 9 104
11 115 5 26 4 416 -1 475 -2 25 -7 76 -10 115 -15 182 -73 486 -125 660 -250
835 -743 1516 -1451 2007 -492 341 -1101 564 -1704 623 -95 9 -412 24 -418 19z
m293 -98 c63 -4 126 -9 140 -11 14 -2 48 -6 75 -10 1103 -135 2095 -804 2657
-1790 139 -246 290 -608 333 -802 2 -10 9 -34 15 -53 12 -41 60 -270 66 -320
3 -19 9 -62 14 -95 10 -69 18 -140 26 -240 5 -78 6 -440 0 -495 -2 -19 -7 -67
-10 -105 -4 -39 -8 -81 -11 -95 -2 -14 -7 -47 -11 -75 -9 -73 -6 -59 -49 -273
-21 -109 -107 -383 -167 -532 -406 -1008 -1254 -1783 -2293 -2095 -142 -43
-220 -62 -345 -85 -30 -6 -66 -12 -80 -15 -13 -3 -42 -7 -65 -10 -22 -3 -57
-8 -78 -11 -256 -35 -632 -37 -882 -4 -44 6 -102 13 -130 16 -27 4 -53 8 -56
10 -4 2 -24 6 -45 10 -167 25 -464 109 -654 186 -348 140 -641 311 -943 551
-132 104 -422 394 -524 524 -444 561 -689 1146 -778 1858 -24 194 -24 589 0
790 72 597 261 1110 588 1600 230 344 563 685 902 924 186 132 514 312 700
386 39 15 79 31 90 36 155 70 616 184 820 204 33 4 71 8 85 10 14 3 79 7 145
11 66 3 121 7 122 8 5 4 232 -1 343 -8z"/>
<path d="M3897 6914 c-1 -1 -42 -4 -91 -8 -49 -3 -141 -18 -204 -32 -356 -80
-663 -245 -911 -492 -122 -121 -171 -181 -254 -308 -158 -241 -253 -489 -295
-769 -9 -67 -9 -394 1 -470 51 -377 288 -853 564 -1131 273 -274 449 -338 768
-280 166 31 343 164 417 316 75 152 96 352 53 516 -82 320 -329 528 -639 539
-233 7 -415 -100 -451 -265 -21 -95 6 -231 63 -321 16 -25 35 -70 42 -100 26
-112 95 -204 209 -278 130 -84 266 -98 348 -35 166 127 -8 446 -283 518 -45
12 -80 13 -164 4 -20 -3 -27 4 -41 42 -66 170 47 280 275 267 111 -6 123 -9
200 -46 244 -117 359 -422 265 -708 -63 -194 -225 -297 -475 -302 -117 -3
-183 19 -293 94 -219 152 -462 481 -586 794 -38 97 -86 273 -106 389 -15 84
-19 330 -8 403 5 30 11 69 14 87 18 115 83 318 141 441 82 174 185 320 326
463 107 109 147 142 278 228 285 187 555 268 915 275 161 3 210 1 362 -19 151
-20 376 -93 538 -174 81 -40 222 -125 235 -141 3 -3 22 -19 43 -35 65 -48 165
-145 231 -225 268 -322 406 -712 443 -1246 15 -220 9 -637 -12 -795 -2 -19 -7
-55 -10 -80 -3 -25 -7 -56 -10 -70 -2 -14 -7 -43 -10 -65 -41 -296 -168 -739
-290 -1010 -12 -27 -35 -79 -51 -115 -59 -136 -176 -343 -280 -500 -279 -422
-587 -713 -936 -883 -164 -81 -286 -119 -429 -133 -65 -7 -199 -7 -254 0 -16
2 -34 4 -39 5 -5 1 33 23 86 49 269 138 494 352 689 658 176 278 322 676 379
1041 6 37 13 79 15 93 11 73 25 283 29 465 3 88 8 123 28 176 39 105 93 186
150 223 24 15 26 15 53 -6 33 -26 135 -54 190 -53 108 3 223 52 284 122 84 94
60 190 -61 255 -37 20 -58 23 -143 23 -140 0 -208 -26 -290 -110 -33 -34 -77
-70 -97 -79 -20 -10 -60 -41 -88 -68 -27 -28 -52 -49 -54 -47 -2 2 -7 30 -10
61 -8 71 -43 204 -85 323 -51 144 -200 680 -225 812 -2 10 -18 83 -36 163 -37
165 -42 277 -16 349 34 93 128 191 236 247 49 26 65 29 150 29 85 0 101 -3
155 -30 94 -47 211 -169 262 -275 145 -299 81 -618 -154 -756 -52 -31 -88 -36
-131 -18 -43 17 -67 47 -90 109 -35 92 -35 97 6 123 85 53 150 187 150 311 0
79 -12 125 -46 174 -81 120 -230 80 -312 -83 -36 -72 -51 -129 -52 -199 -1
-56 27 -171 42 -171 4 0 13 -30 20 -67 67 -386 349 -490 615 -226 136 134 196
297 190 512 -6 246 -112 470 -293 621 -202 170 -443 189 -653 52 -186 -121
-290 -312 -276 -507 7 -96 54 -326 123 -597 13 -53 24 -100 24 -103 0 -4 -35
26 -77 66 -196 183 -449 334 -752 449 -177 67 -221 92 -305 175 -115 114 -178
258 -171 397 5 113 56 165 170 172 65 3 75 -1 75 -33 1 -74 116 -215 217 -267
72 -36 166 -45 222 -19 154 69 63 342 -148 442 -47 23 -74 28 -171 32 -225 10
-280 7 -340 -21 -104 -47 -175 -145 -188 -261 -8 -71 -9 -63 2 -142 11 -83 60
-213 108 -287 41 -64 134 -162 198 -210 60 -45 128 -78 228 -112 188 -64 402
-174 577 -298 266 -190 457 -433 535 -683 51 -162 62 -217 78 -400 10 -109 9
-532 -1 -625 -57 -529 -231 -994 -506 -1355 -53 -69 -205 -224 -271 -276 -90
-70 -216 -144 -310 -182 -86 -34 -92 -36 -192 -56 -87 -18 -88 -18 -140 3
-114 47 -268 150 -398 266 -132 118 -267 306 -356 495 -45 95 -114 290 -114
321 0 11 14 28 31 39 17 11 44 39 60 62 67 95 62 213 -13 298 -58 65 -107 88
-193 88 -106 0 -184 -50 -225 -145 -57 -133 0 -271 138 -334 30 -14 52 -30 52
-39 0 -42 87 -276 149 -402 165 -332 432 -603 746 -758 139 -68 233 -101 385
-133 146 -32 158 -34 265 -36 342 -10 689 113 1015 358 80 60 308 290 415 418
88 105 315 437 386 563 94 167 219 438 269 580 149 433 201 646 245 1000 4 28
8 61 11 75 27 148 26 824 -1 992 -2 13 -11 75 -20 138 -87 620 -392 1117 -867
1412 -262 163 -587 263 -918 284 -92 5 -269 11 -273 8z"/>
</g>
</svg>
