<?xml version="1.0" encoding="UTF-8"?>
<!DOCTYPE svg PUBLIC "-//W3C//DTD SVG 1.1//EN" "http://www.w3.org/Graphics/SVG/1.1/DTD/svg11.dtd">
<!-- Creator: CorelDRAW X6 -->
<svg xmlns="http://www.w3.org/2000/svg" xml:space="preserve" width="220mm" height="400mm" version="1.1" style="shape-rendering:geometricPrecision; text-rendering:geometricPrecision; image-rendering:optimizeQuality; fill-rule:evenodd; clip-rule:evenodd"
viewBox="0 0 22000 40000"
 xmlns:xlink="http://www.w3.org/1999/xlink">
 <defs>
  <style type="text/css">
   <![CDATA[
    .str1 {stroke:#136632;stroke-width:154}
    .str0 {stroke:#136632;stroke-width:309}
    .fil1 {fill:none}
    .fil0 {fill:#136632}
    .fil2 {fill:#136632;fill-rule:nonzero}
   ]]>
  </style>
 </defs>
 <g id="Ebene_x0020_1">
  <metadata id="CorelCorpID_0Corel-Layer"/>
  <g id="_651107120">
   <path class="fil0" d="M7808 19072c0,590 145,1039 382,1517 17,35 33,61 52,97 18,34 36,65 56,99 147,246 312,486 516,690 199,199 264,257 502,400 58,35 142,73 211,92 279,76 655,27 903,-97 260,-131 447,-351 527,-631 42,-146 54,-263 62,-416 3,-58 -16,-204 -28,-260 -50,-232 -143,-404 -284,-585 -16,-20 -29,-31 -46,-48 -176,-176 -373,-295 -628,-341 -351,-63 -810,37 -938,381 -62,166 -33,351 30,507 16,40 35,78 55,114 59,107 55,50 77,179 82,468 825,841 1051,467 133,-221 -80,-534 -254,-664 -157,-117 -353,-210 -559,-169 -35,7 -50,18 -77,24 -204,-386 47,-566 384,-566 188,0 280,19 435,96 73,36 129,92 191,139 79,60 186,237 226,333 139,332 86,806 -157,1049 -139,139 -373,234 -648,234 -77,0 -166,2 -238,-18 -135,-37 -241,-123 -353,-199 -78,-53 -145,-119 -212,-185l-112 -124c-14,-17 -22,-24 -38,-43 -93,-119 -186,-237 -268,-365 -22,-35 -40,-62 -62,-99 -22,-36 -40,-65 -60,-102 -11,-20 -16,-33 -28,-53 -84,-141 -167,-333 -220,-493 -254,-767 -212,-1382 91,-2112 83,-200 225,-421 355,-594 22,-29 44,-58 68,-86 120,-142 255,-285 402,-399 255,-199 488,-344 797,-468 717,-288 1652,-265 2373,25 270,108 526,249 753,432 21,17 38,32 59,49 24,19 36,33 58,50 22,16 36,32 56,52 53,53 115,104 160,163 90,118 136,154 236,303 179,269 325,567 412,881 15,53 32,109 47,168 130,519 153,1052 153,1597 0,42 3,101 -1,140 -5,44 -2,93 -6,142 -7,89 -11,183 -21,275 -27,264 -62,519 -113,776 -108,541 -274,1075 -499,1575 -58,129 -120,282 -191,401 -72,120 -130,246 -214,379 -77,121 -148,245 -233,359l-257 336c-150,192 -329,365 -507,530 -155,143 -330,267 -509,380l-190 106c-33,17 -64,32 -99,49 -289,144 -627,227 -958,227 -85,0 -176,-8 -260,-23 -1,0 -14,-3 -17,-4 -2,0 -4,-1 -5,-2l-14 -6c157,-37 457,-236 573,-322 132,-98 353,-298 465,-438 18,-23 31,-35 49,-59 81,-105 169,-207 237,-321 16,-27 28,-43 45,-69 198,-302 348,-648 464,-997 130,-390 239,-892 260,-1315 7,-142 20,-283 20,-431 0,-59 -5,-181 5,-224 49,-201 158,-458 345,-557 51,34 97,69 158,92 442,167 1067,-260 702,-568 -234,-197 -757,-102 -900,174 -30,57 -93,8 -271,186 -25,25 -61,77 -86,96 -7,-28 -9,-63 -14,-94 -4,-31 -9,-61 -13,-94 -4,-32 -10,-58 -16,-92 -40,-218 -106,-327 -154,-492 -9,-32 -16,-53 -25,-82 -17,-55 -33,-108 -49,-166 -32,-114 -62,-220 -96,-335 -113,-389 -212,-814 -292,-1216 -56,-277 -22,-480 181,-682 111,-111 284,-234 460,-234l94 0c226,0 457,213 577,372 257,342 331,886 88,1249 -53,79 -96,117 -165,178 -154,136 -339,177 -450,-31 -26,-49 -75,-179 -76,-247 27,-6 48,-22 70,-38 155,-108 253,-334 253,-521 0,-124 -11,-227 -75,-322 -17,-26 -55,-66 -80,-82 -325,-202 -670,388 -534,777 10,28 18,51 33,74 9,13 14,20 22,31 16,23 10,5 15,39 19,134 37,236 85,346 160,371 489,484 835,253 25,-17 42,-29 67,-48 28,-21 40,-36 65,-56l90 -91c10,-13 18,-19 29,-32 75,-91 128,-194 171,-307 121,-314 92,-713 -30,-1015 -192,-477 -681,-934 -1257,-791 -73,18 -116,40 -177,66 -23,10 -54,29 -78,43 -123,74 -237,168 -323,283 -73,97 -132,202 -164,321 -65,239 -30,399 17,633l140 614c26,103 53,198 77,300 -64,-43 -132,-134 -198,-186l-69 -58c-137,-122 -295,-227 -452,-322 -53,-32 -108,-67 -166,-96l-168 -88c-31,-16 -57,-25 -88,-40 -249,-126 -530,-175 -715,-315 -75,-57 -137,-118 -201,-189 -42,-47 -75,-99 -108,-154 -89,-146 -207,-530 -44,-687 91,-88 222,-79 345,-79 0,264 336,586 606,586l47 0c242,0 342,-245 175,-525 -79,-133 -213,-240 -356,-297 -88,-35 -199,-50 -296,-26 -22,6 -192,-28 -277,-28 -376,0 -613,251 -613,619 0,259 139,617 321,796 38,38 67,80 109,113l121 101c112,81 238,150 374,184 170,42 543,225 696,313 233,134 446,293 648,470 118,104 222,231 317,357l134 203c115,191 152,352 222,559 69,204 100,819 100,1058 0,596 -81,1064 -238,1593 -24,81 -47,151 -76,227 -57,145 -115,291 -184,429 -17,35 -33,66 -52,103 -82,166 -184,326 -295,473 -44,58 -83,117 -133,170l-71 83c-57,72 -238,238 -315,298 -32,25 -55,43 -88,67 -57,43 -120,84 -182,121 -131,79 -274,145 -421,192 -56,18 -315,87 -379,71 -84,-20 -326,-163 -403,-210 -34,-21 -59,-41 -92,-63l-130 -99c-15,-12 -30,-23 -45,-36l-158 -145c-102,-101 -199,-215 -280,-333 -22,-32 -41,-59 -63,-92 -105,-157 -196,-326 -267,-500 -38,-93 -140,-359 -149,-464 273,-144 330,-490 126,-692 -105,-104 -195,-136 -348,-136 -112,0 -220,68 -278,126 -76,76 -118,176 -126,278l0 74c8,94 45,184 113,251 140,138 159,99 229,134 24,12 20,35 27,61l63 213c94,283 218,548 380,798 15,23 24,33 39,55l156 208c79,102 173,190 264,282l97 85c173,140 342,263 544,365 274,137 519,206 824,267 115,23 234,35 355,36l68 0c200,-3 401,-32 583,-82 139,-38 323,-102 452,-160 138,-62 273,-130 399,-214l182 -127c72,-54 146,-111 212,-172l77 -71c46,-36 145,-151 193,-198 105,-105 197,-205 293,-319 48,-57 90,-108 136,-167l438 -639 168 -296c18,-34 31,-67 50,-98 96,-165 166,-348 244,-523 32,-72 61,-146 89,-221 117,-308 214,-618 294,-938 115,-459 125,-614 184,-1048 7,-50 6,-91 13,-141 6,-44 8,-101 9,-145 1,-33 6,-34 7,-67 1,-27 -2,-54 1,-80 2,-22 4,-50 6,-82l0 -484c-2,-102 -5,-194 -7,-257l-17 -212c-10,-69 -11,-133 -20,-202 -28,-204 -50,-382 -94,-586 -88,-404 -241,-783 -451,-1124 -29,-48 -58,-95 -90,-139 -34,-45 -63,-86 -97,-132 -97,-130 -209,-242 -323,-357 -92,-93 -201,-173 -306,-253 -24,-18 -44,-29 -67,-47 -65,-49 -137,-88 -207,-130 -278,-165 -580,-271 -895,-350 -355,-89 -658,-104 -1027,-104 -521,0 -1100,176 -1540,440 -154,92 -380,241 -516,373 -10,9 -14,15 -24,24 -130,115 -251,245 -361,380 -17,21 -28,36 -44,57 -414,553 -668,1216 -668,1918z"/>
   <circle class="fil1 str0" cx="11000" cy="21032" r="6733"/>
   <circle class="fil1 str1" cx="11000" cy="21032" r="6312"/>
  </g>
  <path class="fil2" d="M1781 12195c-167,55 -336,82 -506,82 -357,0 -627,-95 -809,-286 -182,-191 -273,-427 -273,-708 0,-284 99,-533 296,-745 198,-213 472,-319 823,-319 126,0 246,15 359,44l-38 254c-168,-41 -304,-61 -406,-61 -247,0 -436,75 -567,224 -131,149 -196,334 -196,556 0,222 75,417 225,584 150,167 363,251 636,251 50,0 125,-8 225,-23 -18,-106 -26,-230 -26,-370 0,-118 -7,-234 -21,-347l278 0c-8,135 -12,276 -12,426 0,64 4,210 12,439z"/>
  <path id="1" class="fil2" d="M3901 12237l-295 0c-98,-293 -169,-486 -214,-581 -57,-119 -122,-196 -194,-231 -57,-27 -160,-41 -307,-41 -87,0 -164,1 -231,3 0,329 6,612 18,850l-284 0c15,-316 23,-664 23,-1045 0,-358 -8,-673 -23,-945l215 0c46,0 104,-1 174,-4 70,-3 151,-5 242,-5 446,0 669,154 669,462 0,256 -125,436 -376,539l0 15c112,34 203,112 272,234 58,102 161,352 310,749zm-468 -1434c0,-243 -164,-364 -492,-364 -117,0 -215,6 -295,20 7,177 11,418 11,723 61,2 119,3 176,3 400,0 600,-127 600,-382z"/>
  <path id="2" class="fil2" d="M6007 10246c-4,193 -7,372 -9,540 -2,167 -3,323 -3,467 0,683 -270,1024 -809,1024 -140,0 -261,-20 -362,-61 -100,-40 -183,-102 -247,-185 -65,-83 -112,-188 -142,-314 -30,-126 -45,-276 -45,-448 0,-151 -1,-311 -3,-480 -2,-170 -5,-351 -9,-544l291 0c-12,389 -18,693 -18,913 0,177 8,321 26,433 17,112 48,204 92,279 44,74 100,127 167,158 67,31 153,46 257,46 109,0 198,-15 266,-46 68,-31 124,-82 166,-154 43,-72 74,-164 92,-276 18,-113 27,-260 27,-442 0,-108 -2,-237 -5,-388 -4,-150 -9,-324 -16,-522l284 0zm-926 -392c0,46 -15,88 -46,123 -31,35 -74,53 -129,53 -46,0 -82,-16 -107,-46 -25,-31 -38,-67 -38,-110 0,-45 16,-85 47,-118 31,-34 75,-51 130,-51 46,0 81,14 106,43 25,29 37,65 37,106zm578 0c0,46 -16,88 -46,123 -31,35 -75,53 -129,53 -46,0 -81,-16 -107,-46 -26,-31 -38,-67 -38,-110 0,-45 15,-85 46,-118 31,-34 75,-51 131,-51 45,0 81,14 106,43 25,29 38,65 38,106z"/>
  <path id="3" class="fil2" d="M8204 12237l-214 0c0,-17 -167,-261 -501,-732 -350,-495 -549,-806 -597,-935l-16 0c18,245 28,456 28,631 0,342 8,688 23,1036l-257 0c17,-331 26,-680 26,-1045 0,-359 -9,-675 -26,-945l293 0c0,29 154,261 462,697 322,459 506,757 550,896l15 0c-17,-248 -26,-460 -26,-633 0,-377 -7,-697 -21,-960l261 0c-17,270 -26,585 -26,945 0,366 9,714 26,1045z"/>
  <path id="4" class="fil2" d="M10142 12006l-9 231 -1232 0c14,-316 21,-664 21,-1045 0,-358 -7,-673 -21,-945l1156 0 -13 228c-280,-12 -577,-18 -891,-18 6,158 9,371 9,640 271,0 512,-6 724,-18l0 228c-226,-9 -467,-14 -724,-14 0,262 5,508 14,737 339,0 660,-8 966,-23z"/>
  <path id="5" class="fil2" d="M12866 12237l-214 0c0,-17 -167,-261 -501,-732 -350,-495 -549,-806 -597,-935l-16 0c18,245 28,456 28,631 0,342 8,688 23,1036l-257 0c17,-331 26,-680 26,-1045 0,-359 -9,-675 -26,-945l293 0c0,29 154,261 462,697 322,459 506,757 550,896l15 0c-17,-248 -26,-460 -26,-633 0,-377 -7,-697 -21,-960l261 0c-17,270 -26,585 -26,945 0,366 9,714 26,1045z"/>
  <path id="6" class="fil2" d="M14804 12006l-9 231 -1232 0c14,-316 21,-664 21,-1045 0,-358 -7,-673 -21,-945l1156 0 -13 228c-280,-12 -577,-18 -891,-18 6,158 9,371 9,640 271,0 512,-6 724,-18l0 228c-226,-9 -467,-14 -724,-14 0,262 5,508 14,737 339,0 660,-8 966,-23z"/>
  <path id="7" class="fil2" d="M16909 10246c-4,193 -7,372 -9,540 -2,167 -3,323 -3,467 0,683 -270,1024 -809,1024 -140,0 -261,-20 -362,-61 -100,-40 -183,-102 -247,-185 -65,-83 -112,-188 -142,-314 -30,-126 -45,-276 -45,-448 0,-151 -1,-311 -3,-480 -2,-170 -5,-351 -9,-544l291 0c-12,389 -18,693 -18,913 0,177 8,321 26,433 17,112 48,204 92,279 44,74 100,127 167,158 67,31 153,46 257,46 109,0 198,-15 266,-46 68,-31 124,-82 166,-154 43,-72 74,-164 92,-276 18,-113 27,-260 27,-442 0,-108 -2,-237 -5,-388 -4,-150 -9,-324 -16,-522l284 0z"/>
  <path id="8" class="fil2" d="M19107 12237l-214 0c0,-17 -167,-261 -501,-732 -350,-495 -549,-806 -597,-935l-16 0c18,245 28,456 28,631 0,342 8,688 23,1036l-257 0c17,-331 26,-680 26,-1045 0,-359 -9,-675 -26,-945l293 0c0,29 154,261 462,697 322,459 506,757 550,896l15 0c-17,-248 -26,-460 -26,-633 0,-377 -7,-697 -21,-960l261 0c-17,270 -26,585 -26,945 0,366 9,714 26,1045z"/>
  <path id="9" class="fil2" d="M21045 12006l-9 231 -1232 0c14,-316 21,-664 21,-1045 0,-358 -7,-673 -21,-945l1156 0 -13 228c-280,-12 -577,-18 -891,-18 6,158 9,371 9,640 271,0 512,-6 724,-18l0 228c-226,-9 -467,-14 -724,-14 0,262 5,508 14,737 339,0 660,-8 966,-23z"/>
  <path id="10" class="fil2" d="M21784 10453c0,219 -42,540 -127,963l-113 0c-53,-430 -79,-745 -79,-945 0,-174 60,-261 181,-261 93,0 139,81 139,243zm23 1559c0,61 -20,113 -60,159 -40,46 -96,69 -167,69 -60,0 -107,-20 -140,-59 -33,-40 -50,-87 -50,-142 0,-59 20,-111 61,-155 41,-44 97,-67 170,-67 60,0 106,19 138,57 32,38 48,84 48,139z"/>
  <path class="fil2" d="M7561 8761c-69,161 -119,283 -151,369 -31,86 -47,141 -47,166l-120 0c0,-24 104,-262 313,-714 209,-452 313,-702 313,-751l127 0c0,44 103,290 309,736 206,446 309,689 309,729l-116 0c0,-49 -67,-227 -202,-535l-734 0zm372 -839l-10 0c0,22 -111,277 -334,765l673 0c-111,-260 -194,-449 -248,-568 -54,-119 -81,-185 -81,-197z"/>
  <path id="1" class="fil2" d="M8756 8594c0,-151 35,-287 104,-407 69,-120 163,-213 282,-279 119,-66 246,-99 382,-99 41,0 76,2 104,7 28,5 61,13 101,25l-23 94c-86,-23 -156,-35 -208,-35 -190,0 -346,61 -465,183 -119,122 -179,282 -179,481 0,226 61,396 183,509 122,114 293,171 515,171 73,0 164,-16 270,-48l-7 83c-82,31 -179,46 -290,46 -236,0 -423,-65 -561,-194 -138,-129 -207,-308 -207,-538z"/>
  <path id="2" class="fil2" d="M11014 9296c8,-300 11,-545 11,-735l-786 0c0,225 4,470 13,735l-118 0c13,-334 19,-591 19,-772 0,-209 -7,-441 -19,-694l118 0c-8,179 -13,398 -13,659l786 0c0,-220 -4,-439 -13,-659l117 0c-12,238 -18,470 -18,694 0,259 6,516 18,772l-115 0z"/>
  <path id="3" class="fil2" d="M12346 7827c43,-2 84,-3 124,-3 238,0 422,60 554,178 132,119 197,297 197,534 0,235 -70,424 -209,566 -139,142 -325,213 -558,213 -22,0 -64,-2 -126,-7l-195 -11c13,-272 19,-529 19,-772 0,-227 -7,-459 -19,-694l63 0c33,0 62,0 88,-1l62 -2zm778 734c0,-233 -57,-400 -172,-502 -115,-102 -269,-153 -463,-153 -110,0 -194,3 -252,9 0,131 0,230 1,297l1 311 -1 323c0,147 2,272 7,374 31,4 61,8 92,10 30,2 68,3 113,3 214,0 381,-59 498,-177 118,-118 177,-283 177,-495z"/>
  <path id="4" class="fil2" d="M14166 9316c-200,0 -343,-54 -431,-162 -88,-109 -132,-280 -132,-515 0,-254 -6,-524 -18,-809l117 0 -2 97c-6,280 -9,452 -9,516 0,232 15,398 45,499 30,101 78,175 144,221 66,46 162,70 288,70 182,0 310,-62 384,-186 74,-124 111,-326 111,-606 0,-58 -2,-155 -6,-291 -4,-137 -8,-243 -12,-320l113 0c-3,81 -5,202 -8,362 -2,160 -3,292 -3,397 0,238 -51,418 -151,542 -101,124 -244,185 -429,185z"/>
  <path class="fil2" d="M4387 32532c25,-34 62,-62 109,-82 48,-20 97,-30 148,-30 97,0 171,26 221,77 50,51 75,125 75,221 0,89 -29,163 -88,219 -59,56 -134,85 -226,85 -91,0 -165,-37 -219,-111 -54,-74 -82,-170 -82,-288 0,-361 155,-553 467,-577l7 49c-128,11 -226,52 -292,122 -66,70 -107,175 -122,316l3 0zm492 200c0,-80 -22,-144 -67,-190 -45,-47 -106,-70 -185,-70 -42,0 -87,11 -135,33 -48,22 -83,50 -106,84 0,111 21,202 64,275 42,73 106,109 189,109 71,0 129,-23 173,-69 44,-46 66,-103 66,-172z"/>
  <path id="1" class="fil2" d="M5160 32922c0,-24 7,-42 20,-56 13,-14 31,-21 53,-21 22,0 37,6 46,18 9,12 13,27 13,47 0,21 -7,39 -21,55 -14,16 -31,23 -52,23 -21,0 -36,-6 -45,-19 -9,-13 -14,-29 -14,-47z"/>
  <polygon id="2" class="fil2" points="6057,32597 6049,32653 5748,32661 5753,32609 "/>
  <path id="3" class="fil2" d="M6796 33001c-82,0 -151,-24 -209,-73 -57,-49 -86,-112 -86,-190 0,-52 21,-102 62,-152 41,-49 96,-89 166,-119l0 -4c-60,-35 -104,-70 -131,-105 -27,-35 -40,-75 -40,-122 0,-60 23,-110 69,-149 46,-39 105,-58 176,-58 74,0 133,18 177,53 43,35 65,84 65,146 0,44 -14,86 -42,127 -28,41 -72,75 -131,105l0 3c75,42 133,86 173,131 39,45 59,91 59,137 0,79 -30,143 -89,194 -59,51 -132,76 -219,76zm5 -923c-51,0 -94,12 -129,37 -35,25 -53,59 -53,102 0,42 17,82 50,120 33,38 81,71 144,100 54,-25 96,-55 127,-89 31,-34 46,-75 46,-121 0,-43 -16,-78 -49,-106 -33,-28 -78,-42 -137,-42zm5 874c58,0 111,-18 161,-55 49,-37 74,-84 74,-139 0,-48 -19,-93 -58,-133 -39,-41 -105,-85 -200,-134 -54,18 -105,52 -151,101 -47,49 -70,99 -70,148 0,64 23,116 69,155 46,39 105,58 176,58z"/>
  <path id="4" class="fil2" d="M7322 32922c0,-24 7,-42 20,-56 13,-14 31,-21 53,-21 22,0 37,6 46,18 9,12 13,27 13,47 0,21 -7,39 -21,55 -14,16 -31,23 -52,23 -21,0 -36,-6 -45,-19 -9,-13 -14,-29 -14,-47z"/>
  <path id="5" class="fil2" d="M8032 32272c0,34 6,61 17,82 11,20 31,41 60,61 29,21 70,41 122,60 52,19 98,39 137,60 39,20 70,42 92,66 22,23 37,48 46,73 9,26 13,55 13,89 0,82 -28,143 -85,185 -57,41 -139,62 -248,62 -85,0 -158,-9 -220,-27l14 -66c40,15 77,25 112,31 35,6 72,9 112,9 88,0 153,-15 195,-44 42,-29 63,-77 63,-143 0,-52 -16,-95 -48,-128 -32,-33 -95,-67 -189,-101 -93,-34 -158,-70 -195,-107 -37,-37 -55,-84 -55,-142 0,-69 26,-125 78,-167 52,-42 115,-63 190,-63 84,0 155,8 215,24l-14 59c-43,-10 -80,-18 -111,-22 -30,-5 -61,-7 -94,-7 -66,0 -116,15 -152,45 -36,30 -54,67 -54,112z"/>
  <path id="6" class="fil2" d="M8746 32638c0,91 28,166 84,225 56,59 132,89 227,89 72,0 132,-7 180,-22l-10 56c-15,5 -37,9 -68,14 -30,5 -63,7 -97,7 -124,0 -218,-33 -280,-98 -63,-65 -94,-146 -94,-242 0,-51 6,-98 19,-142 12,-43 31,-83 56,-119 59,-77 135,-115 227,-115 84,0 148,27 194,81 46,54 69,121 69,200 0,26 -1,47 -3,62l-505 6zm4 -50l441 0c0,-79 -17,-140 -51,-182 -34,-42 -85,-64 -152,-64 -62,0 -115,21 -157,63 -42,42 -69,103 -81,183z"/>
  <path id="7" class="fil2" d="M9515 32389l3 0c22,-27 53,-49 95,-66 42,-17 90,-26 146,-26 89,0 159,33 210,99 51,66 76,144 76,233 0,109 -30,199 -91,271 -61,71 -140,107 -239,107 -45,0 -84,-4 -116,-13 -32,-9 -55,-19 -69,-31l-6 0c0,145 1,261 4,348l-76 0c3,-60 5,-130 5,-208 0,-78 0,-162 0,-251l0 -131c0,-98 -1,-178 -3,-238 -2,-60 -7,-114 -16,-160l66 -15 11 82zm462 249c0,-90 -22,-160 -66,-210 -44,-50 -105,-75 -181,-75 -48,0 -89,9 -125,28 -36,18 -67,43 -92,73 0,46 1,105 4,176l2 139c1,58 1,104 1,138 22,16 49,28 81,36 32,8 66,13 103,13 86,0 154,-29 202,-87 48,-58 72,-135 72,-232z"/>
  <path id="8" class="fil2" d="M10593 32985c-41,12 -76,18 -105,18 -82,0 -135,-23 -159,-69 -24,-46 -36,-119 -36,-221 0,-123 0,-232 1,-328 -28,0 -72,1 -131,4l3 -58c52,3 97,4 134,4 0,-51 3,-119 8,-203l62 -4c-9,108 -13,177 -13,207 41,0 116,-2 226,-7l-4 60c-97,-3 -172,-4 -227,-4 -3,82 -4,179 -4,290 0,122 13,198 40,229 26,31 64,46 113,46 14,0 28,-1 42,-4 15,-3 33,-7 54,-12l-6 51z"/>
  <path id="9" class="fil2" d="M10792 32638c0,91 28,166 84,225 56,59 132,89 227,89 72,0 132,-7 180,-22l-10 56c-15,5 -37,9 -68,14 -30,5 -63,7 -97,7 -124,0 -218,-33 -280,-98 -63,-65 -94,-146 -94,-242 0,-51 6,-98 19,-142 12,-43 31,-83 56,-119 59,-77 135,-115 227,-115 84,0 148,27 194,81 46,54 69,121 69,200 0,26 -1,47 -3,62l-505 6zm4 -50l441 0c0,-79 -17,-140 -51,-182 -34,-42 -85,-64 -152,-64 -62,0 -115,21 -157,63 -42,42 -69,103 -81,183z"/>
  <path id="10" class="fil2" d="M11575 32402l1 0c63,-69 131,-104 202,-104 62,0 112,9 150,26 38,18 63,43 75,77l6 0c35,-34 71,-60 107,-77 36,-18 71,-26 105,-26 79,0 138,18 177,53 39,35 59,95 59,181l-1 70 -1 38 1 117c1,65 2,143 2,233l-68 0c11,-128 16,-284 16,-468 0,-60 -14,-103 -42,-128 -28,-25 -77,-38 -148,-38 -32,0 -65,9 -99,27 -34,18 -67,44 -98,78 -2,37 -3,97 -3,179 0,78 1,194 4,350l-69 0c9,-120 13,-267 13,-439 0,-83 -16,-136 -48,-159 -32,-23 -79,-35 -142,-35 -66,0 -133,32 -202,95 -1,29 -1,81 -1,158 0,84 1,186 2,306l0 75 -65 0c9,-173 13,-288 13,-346 0,-94 -10,-201 -29,-322l69 -15 14 95z"/>
  <path id="11" class="fil2" d="M12947 33007c-44,0 -83,-5 -117,-14 -34,-9 -61,-19 -80,-31l-3 0 -12 27 -52 0c5,-133 7,-308 7,-526 0,-181 -4,-335 -11,-460l78 -7c-5,48 -7,179 -7,393l3 0c22,-26 53,-48 94,-66 41,-18 85,-26 134,-26 94,0 167,32 219,96 53,64 79,143 79,236 0,110 -31,200 -92,271 -62,71 -141,107 -237,107zm13 -654c-96,0 -168,34 -214,102 0,176 3,327 8,452 48,33 108,49 180,49 94,0 163,-30 208,-92 45,-61 67,-135 67,-223 0,-96 -23,-168 -70,-216 -46,-48 -106,-73 -180,-73z"/>
  <path id="12" class="fil2" d="M13510 32638c0,91 28,166 84,225 56,59 132,89 227,89 72,0 132,-7 180,-22l-10 56c-15,5 -37,9 -68,14 -30,5 -63,7 -97,7 -124,0 -218,-33 -280,-98 -63,-65 -94,-146 -94,-242 0,-51 6,-98 19,-142 12,-43 31,-83 56,-119 59,-77 135,-115 227,-115 84,0 148,27 194,81 46,54 69,121 69,200 0,26 -1,47 -3,62l-505 6zm4 -50l441 0c0,-79 -17,-140 -51,-182 -34,-42 -85,-64 -152,-64 -62,0 -115,21 -157,63 -42,42 -69,103 -81,183z"/>
  <path id="13" class="fil2" d="M14579 32383c-38,-15 -77,-23 -118,-23 -44,0 -82,12 -114,37 -32,25 -56,61 -71,108 0,220 2,382 6,484l-69 0c5,-128 7,-244 7,-346 0,-106 -9,-213 -27,-321l62 -16c11,56 17,94 18,114l9 0c29,-41 58,-72 88,-92 30,-20 61,-30 93,-30 37,0 82,8 135,23l-18 62z"/>
  <path id="14" class="fil2" d="M14954 32989l15 -58 29 -22c52,-39 102,-79 149,-121 48,-42 91,-91 131,-149 40,-58 59,-115 59,-173 0,-53 -18,-94 -55,-124 -37,-30 -89,-45 -157,-45 -26,0 -56,1 -90,5 -34,3 -58,7 -71,11l16 -60c14,-4 35,-7 61,-9 27,-2 55,-4 84,-4 83,0 149,19 199,57 50,38 75,89 75,152 0,93 -34,178 -102,255 -68,77 -157,156 -267,237l0 1c162,0 303,-3 423,-8l-13 54 -485 0z"/>
  <path id="15" class="fil2" d="M15631 32624c0,-97 28,-184 85,-260 56,-76 131,-114 223,-114 90,0 162,35 215,106 53,71 79,154 79,248 0,108 -28,201 -83,277 -55,76 -131,114 -229,114 -90,0 -160,-36 -212,-109 -52,-73 -78,-160 -78,-262zm60 -11c0,96 23,176 70,239 46,64 105,95 175,95 76,0 135,-32 175,-96 41,-64 61,-143 61,-236 0,-81 -22,-154 -66,-220 -44,-66 -104,-99 -181,-99 -75,0 -133,33 -173,99 -41,66 -61,138 -61,218z"/>
  <path id="16" class="fil2" d="M16407 32989l15 -58 29 -22c52,-39 102,-79 149,-121 48,-42 91,-91 131,-149 40,-58 59,-115 59,-173 0,-53 -18,-94 -55,-124 -37,-30 -89,-45 -157,-45 -26,0 -56,1 -90,5 -34,3 -58,7 -71,11l16 -60c14,-4 35,-7 61,-9 27,-2 55,-4 84,-4 83,0 149,19 199,57 50,38 75,89 75,152 0,93 -34,178 -102,255 -68,77 -157,156 -267,237l0 1c162,0 303,-3 423,-8l-13 54 -485 0z"/>
  <path id="17" class="fil2" d="M17539 32866l-1 153c0,72 1,140 3,203l-67 0c6,-88 8,-207 8,-356l-430 0 -13 -37c0,-7 15,-31 46,-72 30,-42 73,-99 129,-172l30 -40c8,-11 46,-62 115,-153 69,-90 103,-138 103,-144l82 0c-2,25 -3,101 -4,226 -1,126 -1,240 -1,342 44,0 89,-3 135,-8l-13 57 -123 0zm-246 -308c-12,16 -48,62 -106,139 -58,77 -87,117 -87,121l0 3c125,0 252,-1 383,-4 0,-227 1,-399 3,-515l-4 0c-4,7 -15,23 -33,48 -18,25 -55,76 -113,151l-43 57z"/>
  <path class="fil2" d="M7709 34217c0,144 -33,256 -98,337 -67,82 -164,125 -290,131l-15 -85c88,-5 155,-37 202,-96 40,-50 63,-114 69,-194l-5 0c-32,37 -76,55 -133,55 -62,0 -112,-21 -148,-64 -33,-39 -49,-87 -49,-144 0,-62 19,-116 58,-160 43,-49 101,-74 174,-74 64,0 118,23 161,69 50,53 74,128 74,225zm-127 16c0,-74 -12,-131 -37,-169 -21,-32 -47,-48 -80,-48 -31,0 -56,13 -75,39 -17,24 -26,53 -26,87 0,37 10,69 30,95 23,29 53,44 92,44 40,0 72,-16 96,-48z"/>
  <path id="1" class="fil2" d="M8028 34474l-138 0c4,-89 6,-161 6,-216 0,-56 -1,-115 -4,-178l-83 36 -27 -50 182 -140 64 0c-4,142 -6,253 -6,332 0,53 2,125 6,216z"/>
  <path id="2" class="fil2" d="M8568 34363l-11 111 -395 0 11 -104c146,-81 219,-163 219,-245 0,-68 -47,-102 -142,-102 -25,0 -52,2 -80,7l10 -96c30,-8 73,-11 128,-11 71,0 124,15 161,45 37,30 56,71 56,123 0,65 -24,121 -72,167 -48,47 -99,82 -153,106l0 7c76,0 166,-3 269,-8z"/>
  <path id="3" class="fil2" d="M9143 34294l-11 113 -82 0c0,65 2,144 6,238l-137 0c3,-87 5,-167 5,-238l-267 0 -11 -98c0,-6 44,-69 133,-189 89,-120 134,-184 135,-193l142 0c-5,116 -7,240 -7,372 31,0 62,-2 94,-5zm-207 -255l-7 0c0,7 -30,51 -89,131 -59,80 -89,123 -89,128l0 7c44,0 103,-1 176,-3 2,-97 5,-184 9,-263z"/>
  <path id="4" class="fil2" d="M9646 34384c0,72 -33,133 -99,185 -73,57 -171,89 -294,95l-15 -85c84,-7 150,-25 197,-56 47,-30 71,-69 71,-116 0,-50 -21,-86 -62,-108 -42,-22 -111,-33 -207,-33 20,-161 31,-274 31,-339l337 0 -5 113c-66,-7 -148,-11 -245,-11 -8,50 -12,98 -12,144 202,0 302,70 302,211z"/>
  <path id="5" class="fil2" d="M10623 34124c0,106 -32,194 -98,264 -65,70 -145,105 -241,105 -91,0 -168,-32 -229,-96 -62,-64 -92,-146 -92,-244 0,-106 32,-194 97,-264 65,-70 146,-105 241,-105 91,0 168,32 229,96 61,64 92,146 92,245zm-143 15c0,-72 -19,-131 -56,-176 -37,-45 -83,-67 -137,-67 -51,0 -93,23 -129,68 -35,45 -53,102 -53,172 0,72 19,130 56,176 37,45 83,68 137,68 50,0 93,-23 129,-68 35,-45 53,-103 53,-172z"/>
  <path id="6" class="fil2" d="M11216 34206c0,75 -21,141 -64,198 -43,57 -102,85 -177,85 -55,0 -94,-12 -117,-35l-7 0 -10 20 -122 0c5,-121 7,-250 7,-385 0,-127 -6,-242 -17,-344l149 -8c-4,81 -5,172 -5,273l6 0c35,-31 82,-46 142,-46 66,0 119,24 158,72 39,48 58,105 58,171zm-138 13c0,-43 -11,-81 -33,-112 -22,-32 -52,-47 -91,-47 -48,0 -82,14 -105,42 0,118 2,207 8,267 22,17 50,25 84,25 46,0 80,-17 102,-51 22,-34 33,-75 33,-124z"/>
  <path id="7" class="fil2" d="M11760 34175c0,18 -1,41 -3,69l-334 6c5,39 22,72 50,98 29,26 66,39 113,39 52,0 107,-8 165,-23l-10 101c-48,17 -107,26 -177,26 -89,0 -158,-25 -205,-75 -48,-50 -71,-110 -71,-181 0,-74 23,-138 68,-192 45,-54 108,-81 188,-81 73,0 128,20 163,60 36,40 53,91 53,155zm-121 -5c0,-79 -34,-119 -102,-119 -65,0 -103,41 -115,124l217 -4z"/>
  <path id="8" class="fil2" d="M12196 33981l-30 121c-26,-10 -52,-16 -78,-16 -51,0 -84,23 -101,69 0,138 1,244 3,318l-138 0c6,-104 9,-189 9,-255 0,-82 -9,-160 -26,-234l132 -15c6,38 9,60 9,67l8 0c32,-49 74,-73 127,-73 25,0 53,6 84,17z"/>
  <path id="9" class="fil2" d="M12732 34474l-138 0c8,-87 12,-176 12,-266 0,-54 -8,-91 -24,-110 -16,-19 -41,-29 -73,-29 -39,0 -77,13 -112,40 2,135 3,256 3,365l-139 0c6,-108 9,-193 9,-255 0,-83 -8,-161 -25,-234l133 -15 9 55 8 0c47,-41 102,-61 163,-61 53,0 96,13 128,38 32,25 48,71 48,139 0,10 -1,23 -1,40 -1,17 -1,34 -1,52 0,47 1,127 3,242z"/>
  <path id="10" class="fil2" d="M13322 34473l-123 4c-2,-12 -4,-25 -4,-38l-8 0c-38,33 -87,49 -146,49 -66,0 -119,-24 -158,-72 -39,-48 -59,-105 -59,-171 0,-76 21,-142 64,-198 42,-56 102,-84 177,-84 49,0 86,9 110,27l7 0c0,-82 -4,-164 -12,-246l147 -4c-5,81 -8,196 -8,347 0,153 4,282 12,385zm-130 -118c0,-110 -2,-202 -8,-274 -24,-17 -52,-25 -86,-25 -46,0 -79,17 -102,51 -22,34 -33,75 -33,124 0,44 11,81 32,113 21,32 51,47 89,47 51,0 86,-12 107,-37z"/>
  <path id="11" class="fil2" d="M13931 34216c0,87 -27,155 -80,204 -53,49 -117,74 -189,74 -69,0 -129,-22 -178,-67 -49,-45 -74,-108 -74,-189 0,-87 27,-156 81,-205 54,-50 117,-74 190,-74 69,0 128,22 177,68 49,45 74,109 74,190zm-135 16c0,-50 -12,-92 -35,-126 -24,-34 -54,-51 -92,-51 -37,0 -66,16 -89,48 -23,32 -35,72 -35,119 0,50 12,92 35,126 24,34 54,51 92,51 37,0 66,-16 89,-48 23,-32 35,-72 35,-119z"/>
  <path id="12" class="fil2" d="M14367 33981l-30 121c-26,-10 -52,-16 -78,-16 -51,0 -84,23 -101,69 0,138 1,244 3,318l-138 0c6,-104 9,-189 9,-255 0,-82 -9,-160 -26,-234l132 -15c6,38 9,60 9,67l8 0c32,-49 74,-73 127,-73 25,0 53,6 84,17z"/>
  <path id="13" class="fil2" d="M14758 33738l-19 92c-20,-5 -40,-7 -61,-7 -25,0 -42,12 -51,34 -9,23 -14,67 -14,133 31,0 73,-1 127,-4l-4 103c-54,-2 -95,-3 -123,-3 0,130 2,260 8,388l-137 0c5,-127 8,-256 8,-388 -20,0 -51,1 -91,3l4 -103c37,2 65,4 87,4 0,-174 58,-261 175,-261 35,0 65,3 91,9z"/>
  <path class="fil2" d="M7486 29961c-150,-6 -384,-9 -703,-9 3,161 4,362 4,604 216,0 390,-3 521,-9l0 97c-69,-3 -139,-6 -210,-7 -71,-1 -175,-1 -311,-1 0,234 1,398 2,493 2,95 5,163 10,205l-118 0 8 -235c9,-227 13,-405 13,-537 0,-103 -2,-198 -5,-287 -3,-88 -7,-192 -12,-310l-5 -97 811 0 -7 92z"/>
  <path id="1" class="fil2" d="M7803 31335l8 -235c9,-227 13,-405 13,-537 0,-136 -3,-284 -10,-442 -7,-158 -10,-242 -11,-252l797 0 -5 92c-166,-6 -396,-9 -691,-9 3,166 4,357 4,571 235,0 420,-5 553,-13l0 101c-179,-7 -363,-11 -553,-11l0 249c0,162 2,296 6,406 277,0 529,-6 757,-18l-5 99 -864 0z"/>
  <path id="2" class="fil2" d="M8979 30187c0,55 9,98 27,131 18,32 50,65 96,98 46,33 111,66 195,97 83,31 156,63 219,96 63,33 112,68 147,105 35,37 59,76 74,118 14,41 21,88 21,142 0,131 -45,230 -136,296 -91,66 -223,99 -396,99 -136,0 -253,-15 -353,-44l23 -106c64,24 124,41 179,50 56,10 116,14 179,14 141,0 245,-23 312,-70 67,-46 100,-123 100,-229 0,-83 -26,-152 -78,-205 -52,-53 -152,-108 -302,-162 -149,-54 -253,-111 -311,-171 -59,-60 -88,-135 -88,-227 0,-111 41,-200 124,-268 83,-68 184,-101 304,-101 134,0 249,13 343,39l-23 94c-70,-17 -129,-28 -177,-35 -48,-7 -98,-11 -150,-11 -105,0 -186,24 -244,71 -57,48 -86,108 -86,179z"/>
  <path id="3" class="fil2" d="M10840 29958c-166,-3 -273,-5 -325,-5 -8,176 -11,378 -11,608 0,245 3,503 11,774l-117 0c12,-314 18,-571 18,-772 0,-106 -2,-202 -4,-290 -3,-88 -7,-194 -12,-320 -59,0 -147,2 -263,5l-223 6 0 -94 1088 0 -5 92 -157 -3z"/>
  <path id="4" class="fil2" d="M11274 31335c13,-334 19,-591 19,-772 0,-209 -7,-441 -19,-694l118 0c-8,179 -13,409 -13,692 0,251 4,509 13,774l-118 0z"/>
  <path id="5" class="fil2" d="M12553 30601c-69,154 -130,306 -182,456 -53,150 -79,242 -79,278l-99 0c0,-64 -44,-212 -131,-443 -87,-232 -177,-450 -268,-657 -91,-206 -137,-328 -137,-366l118 0c0,55 76,267 229,638 153,371 234,603 243,696l5 0c0,-36 17,-100 51,-193 34,-93 100,-255 198,-486l73 -172c71,-168 120,-285 146,-351 26,-66 39,-110 39,-132l106 0c0,20 -12,60 -37,120 -25,60 -71,164 -138,313l-135 298z"/>
  <path id="6" class="fil2" d="M13162 30801c-69,161 -119,283 -151,369 -31,86 -47,141 -47,166l-120 0c0,-24 104,-262 313,-714 209,-452 313,-702 313,-751l127 0c0,44 103,290 309,736 206,446 309,689 309,729l-116 0c0,-49 -67,-227 -202,-535l-734 0zm372 -839l-10 0c0,22 -111,277 -334,765l673 0c-111,-260 -194,-449 -248,-568 -54,-119 -81,-185 -81,-197z"/>
  <path id="7" class="fil2" d="M14577 30884l1 229c0,65 0,113 -1,142 276,0 523,-4 742,-11l-5 92 -836 0c6,-225 9,-482 9,-772 0,-136 0,-262 -1,-378 -1,-116 -3,-221 -8,-316l116 0c-13,169 -19,400 -19,694 0,83 1,190 2,321z"/>
 </g>
</svg>
