<?xml version="1.0" encoding="UTF-8"?>
<!DOCTYPE svg PUBLIC "-//W3C//DTD SVG 1.1//EN" "http://www.w3.org/Graphics/SVG/1.1/DTD/svg11.dtd">
<!-- Creator: CorelDRAW X6 -->
<svg xmlns="http://www.w3.org/2000/svg" xml:space="preserve" width="300mm" height="210mm" version="1.1" style="shape-rendering:geometricPrecision; text-rendering:geometricPrecision; image-rendering:optimizeQuality; fill-rule:evenodd; clip-rule:evenodd"
viewBox="0 0 30000 21000"
 xmlns:xlink="http://www.w3.org/1999/xlink">
 <defs>
  <style type="text/css">
   <![CDATA[
    .str1 {stroke:#136632;stroke-width:75}
    .str0 {stroke:#136632;stroke-width:150}
    .fil1 {fill:none}
    .fil0 {fill:#136632}
    .fil2 {fill:#136632;fill-rule:nonzero}
   ]]>
  </style>
 </defs>
 <g id="Ebene_x0020_1">
  <metadata id="CorelCorpID_0Corel-Layer"/>
  <g id="_179826176">
   <path class="fil0" d="M13450 8865c0,286 70,505 185,737 8,17 16,30 25,47 9,17 18,32 27,48 72,120 151,236 250,335 97,97 128,125 244,194 28,17 69,35 103,44 136,37 318,13 438,-47 126,-63 217,-170 256,-306 20,-71 26,-128 30,-202 2,-28 -8,-99 -13,-126 -24,-113 -69,-196 -138,-284 -8,-10 -14,-15 -22,-23 -85,-85 -181,-143 -305,-166 -171,-31 -393,18 -455,185 -30,81 -16,170 14,246 8,19 17,38 27,55 29,52 26,24 37,87 40,227 400,408 510,227 65,-107 -39,-259 -123,-323 -76,-57 -172,-102 -271,-82 -17,3 -24,9 -37,12 -99,-187 23,-275 186,-275 91,0 136,9 211,47 35,18 63,45 93,68 38,29 90,115 110,162 68,161 42,391 -76,509 -67,67 -181,114 -315,114 -37,0 -80,1 -116,-9 -65,-18 -117,-60 -171,-97 -38,-26 -71,-58 -103,-90l-54 -60c-7,-8 -11,-11 -18,-21 -45,-58 -90,-115 -130,-177 -11,-17 -19,-30 -30,-48 -10,-17 -19,-32 -29,-49 -5,-10 -8,-16 -13,-26 -41,-68 -81,-161 -107,-240 -123,-372 -103,-671 44,-1025 40,-97 109,-204 172,-289 11,-14 22,-28 33,-42 58,-69 124,-138 195,-194 124,-96 237,-167 387,-227 348,-140 802,-129 1152,12 131,53 256,121 366,210 10,8 18,16 29,24 12,9 17,16 28,24 10,8 17,16 27,25 26,26 56,51 78,79 44,57 66,75 114,147 87,131 158,275 200,428 7,26 16,53 23,82 63,252 75,511 75,775 0,20 2,49 0,68 -2,22 -1,45 -3,69 -4,43 -6,89 -10,134 -13,128 -30,252 -55,377 -53,263 -133,522 -242,765 -28,62 -58,137 -93,195 -35,58 -63,119 -104,184 -37,59 -72,119 -113,174l-125 163c-73,93 -160,177 -246,257 -75,70 -160,130 -247,184l-92 52c-16,8 -31,15 -48,24 -140,70 -304,110 -465,110 -41,0 -85,-4 -126,-11 -1,0 -7,-1 -8,-2 -1,0 -2,-1 -3,-1l-7 -3c76,-18 222,-114 278,-156 64,-48 171,-145 226,-212 9,-11 15,-17 24,-28 40,-51 82,-101 115,-156 8,-13 14,-21 22,-34 96,-146 169,-314 225,-484 63,-189 116,-433 126,-639 3,-69 10,-138 10,-209 0,-29 -3,-88 2,-109 24,-98 77,-223 168,-270 25,17 47,33 77,44 215,81 518,-126 341,-276 -114,-96 -368,-49 -437,84 -14,28 -45,4 -132,91 -12,12 -29,38 -42,47 -3,-14 -5,-30 -7,-46 -2,-15 -4,-30 -7,-46 -2,-16 -5,-28 -8,-45 -20,-106 -52,-159 -75,-239 -5,-16 -8,-26 -12,-40 -8,-26 -16,-52 -24,-81 -16,-55 -30,-107 -46,-163 -55,-189 -103,-395 -142,-590 -27,-135 -10,-233 88,-331 54,-54 138,-114 223,-114l46 0c110,0 222,103 280,181 125,166 161,430 43,606 -26,38 -47,57 -80,86 -75,66 -164,86 -219,-15 -13,-24 -36,-87 -37,-120 13,-3 23,-11 34,-18 75,-52 123,-162 123,-253 0,-60 -5,-110 -37,-156 -8,-13 -27,-32 -39,-40 -158,-98 -325,188 -259,377 5,14 9,25 16,36 4,6 7,10 11,15 8,11 5,2 7,19 9,65 18,115 41,168 78,180 238,235 406,123 12,-8 21,-14 32,-23 14,-10 19,-18 32,-27l44 -44c5,-6 9,-9 14,-15 36,-44 62,-94 83,-149 59,-152 45,-346 -14,-493 -93,-232 -331,-453 -610,-384 -35,9 -56,19 -86,32 -11,5 -26,14 -38,21 -60,36 -115,82 -157,137 -35,47 -64,98 -80,156 -32,116 -14,194 8,307l68 298c13,50 26,96 37,146 -31,-21 -64,-65 -96,-90l-34 -28c-67,-59 -143,-110 -220,-156 -26,-15 -52,-33 -81,-47l-82 -42c-15,-8 -28,-12 -43,-20 -121,-61 -257,-85 -347,-153 -37,-28 -67,-57 -98,-92 -20,-23 -36,-48 -53,-75 -43,-71 -101,-257 -21,-334 44,-43 108,-38 168,-38 0,128 163,284 294,284l23 0c117,0 166,-119 85,-255 -39,-64 -103,-116 -173,-144 -43,-17 -97,-24 -144,-12 -11,3 -93,-14 -134,-14 -182,0 -297,122 -297,301 0,126 67,299 156,387 19,18 33,39 53,55l59 49c54,39 115,73 182,90 83,20 263,109 338,152 113,65 217,142 314,228 57,50 108,112 154,173l65 98c56,93 74,171 108,271 33,99 49,398 49,514 0,289 -39,517 -116,774 -12,39 -23,73 -37,110 -28,70 -56,141 -89,208 -8,17 -16,32 -25,50 -40,80 -89,158 -143,230 -21,28 -41,57 -65,82l-35 41c-28,35 -115,116 -153,145 -15,12 -27,21 -43,33 -28,21 -58,41 -88,59 -64,38 -133,70 -204,93 -27,9 -153,42 -184,35 -41,-10 -158,-79 -195,-102 -16,-10 -29,-20 -44,-31l-63 -48c-7,-6 -15,-11 -22,-18l-77 -70c-49,-49 -97,-104 -136,-162 -11,-16 -20,-28 -31,-44 -51,-76 -95,-158 -130,-243 -18,-45 -68,-174 -72,-225 132,-70 160,-238 61,-336 -51,-51 -95,-66 -169,-66 -54,0 -107,33 -135,61 -37,37 -57,86 -61,135l0 36c4,46 22,89 55,122 68,67 77,48 111,65 12,6 10,17 13,29l31 104c46,137 106,266 185,388 7,11 12,16 19,27l76 101c38,49 84,92 128,137l47 41c84,68 166,128 264,177 133,67 252,100 400,129 56,11 114,17 172,18l33 0c97,-1 195,-16 283,-40 67,-18 157,-50 220,-78 67,-30 133,-63 194,-104l89 -62c35,-26 71,-54 103,-83l37 -35c22,-18 70,-73 93,-96 51,-51 96,-99 142,-155 23,-28 44,-52 66,-81l213 -310 82 -144c9,-17 15,-32 24,-48 47,-80 81,-169 119,-254 16,-35 30,-71 43,-107 57,-150 104,-300 143,-456 56,-223 60,-298 89,-509 3,-24 3,-44 7,-69 3,-21 4,-49 5,-71 0,-16 3,-16 3,-33 0,-13 -1,-26 0,-39 1,-11 2,-24 3,-40l0 -235c-1,-49 -2,-94 -3,-125l-8 -103c-5,-34 -5,-64 -10,-98 -14,-99 -24,-186 -46,-284 -43,-196 -117,-380 -219,-546 -14,-23 -28,-46 -44,-67 -16,-22 -31,-42 -47,-64 -47,-63 -102,-118 -157,-173 -45,-45 -98,-84 -149,-123 -12,-9 -21,-14 -33,-23 -31,-24 -66,-43 -100,-63 -135,-80 -281,-132 -435,-170 -172,-43 -320,-50 -499,-50 -253,0 -534,86 -748,214 -75,45 -185,117 -250,181 -5,4 -7,7 -11,11 -63,56 -122,119 -175,185 -8,10 -14,18 -21,28 -201,268 -324,591 -324,931z"/>
   <circle class="fil1 str0" cx="15000" cy="9816" r="3269"/>
   <circle class="fil1 str1" cx="15000" cy="9816" r="3065"/>
  </g>
  <path class="fil2" d="M2615 10866c-168,55 -338,82 -509,82 -359,0 -630,-95 -813,-286 -183,-191 -274,-427 -274,-708 0,-284 100,-533 298,-745 199,-213 475,-319 827,-319 127,0 247,15 361,44l-38 254c-169,-41 -305,-61 -408,-61 -248,0 -438,75 -569,224 -132,149 -197,334 -197,556 0,222 76,417 227,584 151,167 364,251 640,251 50,0 125,-8 226,-23 -18,-106 -26,-230 -26,-370 0,-118 -7,-234 -22,-347l279 0c-8,135 -12,276 -12,426 0,64 4,210 12,439z"/>
  <path id="1" class="fil2" d="M4746 10907l-297 0c-98,-293 -170,-486 -215,-581 -58,-119 -123,-196 -195,-231 -58,-27 -160,-41 -309,-41 -87,0 -165,1 -232,3 0,329 6,612 18,850l-286 0c15,-316 23,-664 23,-1045 0,-358 -8,-673 -23,-945l217 0c46,0 104,-1 175,-4 71,-3 152,-5 243,-5 448,0 673,154 673,462 0,256 -126,436 -378,539l0 15c113,34 204,112 274,234 58,102 162,352 312,749zm-470 -1434c0,-243 -165,-364 -494,-364 -118,0 -217,6 -297,20 7,177 11,418 11,723 61,2 120,3 177,3 402,0 604,-127 604,-382z"/>
  <path id="2" class="fil2" d="M6862 8917c-4,193 -7,372 -9,540 -2,167 -3,323 -3,467 0,683 -271,1024 -813,1024 -141,0 -262,-20 -363,-61 -101,-40 -184,-102 -249,-185 -65,-83 -113,-188 -143,-314 -30,-126 -45,-276 -45,-448 0,-151 -1,-311 -3,-480 -2,-170 -5,-351 -9,-544l292 0c-12,389 -18,693 -18,913 0,177 8,321 26,433 17,112 48,204 93,279 45,74 101,127 168,158 68,31 154,46 258,46 110,0 199,-15 267,-46 68,-31 124,-82 167,-154 43,-72 74,-164 92,-276 18,-113 27,-260 27,-442 0,-108 -2,-237 -5,-388 -4,-150 -9,-324 -16,-522l285 0zm-931 -392c0,46 -15,88 -47,123 -31,35 -74,53 -130,53 -46,0 -82,-16 -108,-46 -25,-31 -38,-67 -38,-110 0,-45 16,-85 47,-118 31,-34 75,-51 131,-51 46,0 82,14 107,43 25,29 37,65 37,106zm581 0c0,46 -16,88 -47,123 -31,35 -75,53 -130,53 -46,0 -82,-16 -107,-46 -26,-31 -38,-67 -38,-110 0,-45 15,-85 47,-118 31,-34 75,-51 132,-51 46,0 81,14 106,43 25,29 38,65 38,106z"/>
  <path id="3" class="fil2" d="M9071 10907l-215 0c0,-17 -168,-261 -504,-732 -351,-495 -552,-806 -600,-935l-16 0c18,245 28,456 28,631 0,342 8,688 23,1036l-258 0c17,-331 26,-680 26,-1045 0,-359 -9,-675 -26,-945l295 0c0,29 155,261 464,697 324,459 508,757 553,896l15 0c-17,-248 -26,-460 -26,-633 0,-377 -7,-697 -22,-960l263 0c-17,270 -26,585 -26,945 0,366 9,714 26,1045z"/>
  <path id="4" class="fil2" d="M11019 10676l-9 231 -1238 0c14,-316 22,-664 22,-1045 0,-358 -7,-673 -22,-945l1161 0 -13 228c-282,-12 -580,-18 -896,-18 6,158 9,371 9,640 272,0 515,-6 728,-18l0 228c-227,-9 -470,-14 -728,-14 0,262 5,508 14,737 340,0 664,-8 971,-23z"/>
  <path class="fil2" d="M20552 10912l-204 0c0,-17 -159,-261 -479,-732 -334,-495 -524,-806 -570,-935l-15 0c17,245 26,456 26,631 0,342 7,688 22,1036l-245 0c16,-331 25,-680 25,-1045 0,-359 -8,-675 -25,-945l280 0c0,29 147,261 441,697 307,459 483,757 525,896l14 0c-16,-248 -25,-460 -25,-633 0,-377 -6,-697 -20,-960l249 0c-16,270 -25,585 -25,945 0,366 8,714 25,1045z"/>
  <path id="1" class="fil2" d="M22402 10682l-9 231 -1176 0c13,-316 20,-664 20,-1045 0,-358 -7,-673 -20,-945l1103 0 -12 228c-267,-12 -551,-18 -851,-18 6,158 9,371 9,640 258,0 489,-6 691,-18l0 228c-216,-9 -446,-14 -691,-14 0,262 4,508 13,737 323,0 630,-8 922,-23z"/>
  <path id="2" class="fil2" d="M24412 8922c-3,193 -6,372 -8,540 -2,167 -3,323 -3,467 0,683 -257,1024 -772,1024 -134,0 -249,-20 -345,-61 -96,-40 -174,-102 -236,-185 -62,-83 -107,-188 -136,-314 -28,-126 -43,-276 -43,-448 0,-151 -1,-311 -3,-480 -2,-170 -5,-351 -9,-544l277 0c-11,389 -17,693 -17,913 0,177 8,321 25,433 16,112 46,204 88,279 42,74 96,127 160,158 64,31 146,46 245,46 104,0 189,-15 254,-46 65,-31 118,-82 159,-154 41,-72 70,-164 88,-276 17,-113 26,-260 26,-442 0,-108 -1,-237 -5,-388 -3,-150 -8,-324 -15,-522l271 0z"/>
  <path id="3" class="fil2" d="M26510 10912l-204 0c0,-17 -159,-261 -479,-732 -334,-495 -524,-806 -570,-935l-15 0c17,245 26,456 26,631 0,342 7,688 22,1036l-245 0c16,-331 25,-680 25,-1045 0,-359 -8,-675 -25,-945l280 0c0,29 147,261 441,697 307,459 483,757 525,896l14 0c-16,-248 -25,-460 -25,-633 0,-377 -6,-697 -20,-960l249 0c-16,270 -25,585 -25,945 0,366 8,714 25,1045z"/>
  <path id="4" class="fil2" d="M28360 10682l-9 231 -1176 0c13,-316 20,-664 20,-1045 0,-358 -7,-673 -20,-945l1103 0 -12 228c-267,-12 -551,-18 -851,-18 6,158 9,371 9,640 258,0 489,-6 691,-18l0 228c-216,-9 -446,-14 -691,-14 0,262 4,508 13,737 323,0 630,-8 922,-23z"/>
  <path id="5" class="fil2" d="M29065 9129c0,219 -40,540 -121,963l-108 0c-50,-430 -76,-745 -76,-945 0,-174 57,-261 172,-261 89,0 132,81 132,243zm22 1559c0,61 -19,113 -57,159 -38,46 -92,69 -160,69 -57,0 -102,-20 -133,-59 -32,-40 -47,-87 -47,-142 0,-59 19,-111 58,-155 39,-44 93,-67 162,-67 57,0 102,19 132,57 31,38 46,84 46,139z"/>
  <path class="fil2" d="M11561 5400c-69,161 -119,283 -151,369 -31,86 -47,141 -47,166l-120 0c0,-24 104,-262 313,-714 209,-452 313,-702 313,-751l127 0c0,44 103,290 309,736 206,446 309,689 309,729l-116 0c0,-49 -67,-227 -202,-535l-734 0zm372 -839l-10 0c0,22 -111,277 -334,765l673 0c-111,-260 -194,-449 -248,-568 -54,-119 -81,-185 -81,-197z"/>
  <path id="1" class="fil2" d="M12756 5233c0,-151 35,-287 104,-407 69,-120 163,-213 282,-279 119,-66 246,-99 382,-99 41,0 76,2 104,7 28,5 61,13 101,25l-23 94c-86,-23 -156,-35 -208,-35 -190,0 -346,61 -465,183 -119,122 -179,282 -179,481 0,226 61,396 183,509 122,114 293,171 515,171 73,0 164,-16 270,-48l-7 83c-82,31 -179,46 -290,46 -236,0 -423,-65 -561,-194 -138,-129 -207,-308 -207,-538z"/>
  <path id="2" class="fil2" d="M15014 5934c8,-300 11,-545 11,-735l-786 0c0,225 4,470 13,735l-118 0c13,-334 19,-591 19,-772 0,-209 -7,-441 -19,-694l118 0c-8,179 -13,398 -13,659l786 0c0,-220 -4,-439 -13,-659l117 0c-12,238 -18,470 -18,694 0,259 6,516 18,772l-115 0z"/>
  <path id="3" class="fil2" d="M16346 4465c43,-2 84,-3 124,-3 238,0 422,60 554,178 132,119 197,297 197,534 0,235 -70,424 -209,566 -139,142 -325,213 -558,213 -22,0 -64,-2 -126,-7l-195 -11c13,-272 19,-529 19,-772 0,-227 -7,-459 -19,-694l63 0c33,0 62,0 88,-1l62 -2zm778 734c0,-233 -57,-400 -172,-502 -115,-102 -269,-153 -463,-153 -110,0 -194,3 -252,9 0,131 0,230 1,297l1 311 -1 323c0,147 2,272 7,374 31,4 61,8 92,10 30,2 68,3 113,3 214,0 381,-59 498,-177 118,-118 177,-283 177,-495z"/>
  <path id="4" class="fil2" d="M18166 5955c-200,0 -343,-54 -431,-162 -88,-109 -132,-280 -132,-515 0,-254 -6,-524 -18,-809l117 0 -2 97c-6,280 -9,452 -9,516 0,232 15,398 45,499 30,101 78,175 144,221 66,46 162,70 288,70 182,0 310,-62 384,-186 74,-124 111,-326 111,-606 0,-58 -2,-155 -6,-291 -4,-137 -8,-243 -12,-320l113 0c-3,81 -5,202 -8,362 -2,160 -3,292 -3,397 0,238 -51,418 -151,542 -101,124 -244,185 -429,185z"/>
  <path class="fil2" d="M8730 17316c-9,74 -16,137 -21,187 -5,51 -8,92 -8,122 162,2 278,24 348,65 70,41 104,108 104,201 0,68 -23,131 -69,188 -46,57 -108,102 -187,135 -79,33 -162,50 -251,53l-17 -50c134,-7 245,-38 331,-92 87,-55 130,-125 130,-211 0,-65 -16,-113 -48,-146 -32,-33 -78,-54 -139,-66 -61,-12 -149,-17 -263,-17 24,-202 36,-340 36,-416l405 0 -4 63c-108,-11 -224,-16 -346,-16z"/>
  <path id="1" class="fil2" d="M9371 17942c0,-24 7,-42 20,-56 13,-14 31,-21 53,-21 22,0 37,6 46,18 9,12 13,27 13,47 0,21 -7,39 -21,55 -14,16 -31,23 -52,23 -21,0 -36,-6 -45,-19 -9,-13 -14,-29 -14,-47z"/>
  <polygon id="2" class="fil2" points="10268,17617 10260,17673 9959,17681 9964,17630 "/>
  <path id="3" class="fil2" d="M10775 17552c25,-34 62,-62 109,-82 48,-20 97,-30 148,-30 97,0 171,26 221,77 50,51 75,125 75,221 0,90 -29,163 -88,219 -59,56 -134,85 -226,85 -91,0 -165,-37 -219,-111 -54,-74 -82,-170 -82,-288 0,-361 155,-553 467,-577l7 49c-128,11 -226,52 -292,122 -66,70 -107,175 -122,316l3 0zm492 200c0,-80 -22,-144 -67,-190 -45,-47 -106,-70 -185,-70 -42,0 -87,11 -135,33 -48,22 -83,50 -106,84 0,111 21,202 64,275 42,73 106,109 189,109 71,0 129,-23 173,-69 44,-46 66,-103 66,-172z"/>
  <path id="4" class="fil2" d="M11548 17942c0,-24 7,-42 20,-56 13,-14 31,-21 53,-21 22,0 37,6 46,18 9,12 13,27 13,47 0,21 -7,39 -21,55 -14,16 -31,23 -52,23 -21,0 -36,-6 -45,-19 -9,-13 -14,-29 -14,-47z"/>
  <path id="5" class="fil2" d="M12257 17292c0,34 6,61 17,82 11,20 31,41 60,61 29,21 70,41 122,60 52,19 98,39 137,60 39,20 70,42 92,66 22,23 37,48 46,73 9,26 13,55 13,89 0,82 -28,143 -85,185 -57,41 -139,62 -248,62 -85,0 -158,-9 -220,-27l14 -66c40,15 77,25 112,31 35,6 72,9 112,9 88,0 153,-15 195,-44 42,-29 63,-77 63,-143 0,-52 -16,-95 -48,-128 -32,-33 -95,-67 -189,-101 -93,-34 -158,-70 -195,-107 -37,-37 -55,-84 -55,-142 0,-69 26,-125 78,-167 52,-42 115,-63 190,-63 84,0 155,8 215,24l-14 59c-43,-10 -80,-18 -111,-22 -30,-5 -61,-7 -94,-7 -66,0 -116,15 -152,45 -36,30 -54,67 -54,112z"/>
  <path id="6" class="fil2" d="M12972 17658c0,91 28,166 84,225 56,59 132,89 227,89 72,0 132,-7 180,-22l-10 56c-15,5 -37,9 -68,14 -30,5 -63,7 -97,7 -124,0 -218,-33 -280,-98 -63,-65 -94,-146 -94,-242 0,-51 6,-98 19,-142 12,-43 31,-83 56,-119 59,-77 135,-115 227,-115 84,0 148,27 194,81 46,54 69,121 69,200 0,26 -1,47 -3,62l-505 6zm4 -50l441 0c0,-79 -17,-140 -51,-182 -34,-42 -85,-64 -152,-64 -62,0 -115,21 -157,63 -42,42 -69,103 -81,183z"/>
  <path id="7" class="fil2" d="M13741 17409l3 0c22,-27 53,-49 95,-66 42,-17 90,-26 146,-26 89,0 159,33 210,99 51,66 76,144 76,233 0,109 -30,199 -91,271 -61,71 -140,107 -239,107 -45,0 -84,-4 -116,-13 -32,-9 -55,-19 -69,-31l-6 0c0,145 1,261 4,348l-76 0c3,-60 5,-130 5,-208 0,-78 0,-162 0,-251l0 -131c0,-98 -1,-178 -3,-238 -2,-60 -7,-114 -16,-160l66 -15 11 82zm462 249c0,-90 -22,-160 -66,-210 -44,-50 -105,-75 -181,-75 -48,0 -89,9 -125,28 -36,18 -67,43 -92,73 0,46 1,105 4,176l2 139c1,58 1,104 1,138 22,16 49,28 81,36 32,8 66,13 103,13 86,0 154,-29 202,-87 48,-58 72,-135 72,-232z"/>
  <path id="8" class="fil2" d="M14819 18006c-41,12 -76,18 -105,18 -82,0 -135,-23 -159,-69 -24,-46 -36,-119 -36,-221 0,-123 0,-232 1,-328 -28,0 -72,1 -131,4l3 -58c52,3 97,4 134,4 0,-51 3,-119 8,-203l62 -4c-9,108 -13,177 -13,207 41,0 116,-2 226,-7l-4 60c-97,-3 -172,-4 -227,-4 -3,82 -4,179 -4,290 0,122 13,198 40,229 26,31 64,46 113,46 14,0 28,-1 42,-4 15,-3 33,-7 54,-12l-6 51z"/>
  <path id="9" class="fil2" d="M15017 17658c0,91 28,166 84,225 56,59 132,89 227,89 72,0 132,-7 180,-22l-10 56c-15,5 -37,9 -68,14 -30,5 -63,7 -97,7 -124,0 -218,-33 -280,-98 -63,-65 -94,-146 -94,-242 0,-51 6,-98 19,-142 12,-43 31,-83 56,-119 59,-77 135,-115 227,-115 84,0 148,27 194,81 46,54 69,121 69,200 0,26 -1,47 -3,62l-505 6zm4 -50l441 0c0,-79 -17,-140 -51,-182 -34,-42 -85,-64 -152,-64 -62,0 -115,21 -157,63 -42,42 -69,103 -81,183z"/>
  <path id="10" class="fil2" d="M15800 17422l1 0c63,-69 131,-104 202,-104 62,0 112,9 150,26 38,18 63,43 75,77l6 0c35,-34 71,-60 107,-77 36,-18 71,-26 105,-26 79,0 138,18 177,53 39,35 59,95 59,181l-1 70 -1 38 1 117c1,65 2,143 2,233l-68 0c11,-128 16,-284 16,-468 0,-60 -14,-103 -42,-128 -28,-25 -77,-38 -148,-38 -32,0 -65,9 -99,27 -34,18 -67,44 -98,78 -2,37 -3,97 -3,179 0,78 1,194 4,350l-69 0c9,-120 13,-267 13,-439 0,-83 -16,-136 -48,-159 -32,-23 -79,-35 -142,-35 -66,0 -133,32 -202,95 -1,29 -1,81 -1,158 0,84 1,186 2,306l0 75 -65 0c9,-173 13,-288 13,-346 0,-94 -10,-201 -29,-322l69 -15 14 95z"/>
  <path id="11" class="fil2" d="M17172 18027c-44,0 -83,-5 -117,-14 -34,-9 -61,-19 -80,-31l-3 0 -12 27 -52 0c5,-133 7,-308 7,-526 0,-181 -4,-335 -11,-460l78 -7c-5,48 -7,179 -7,393l3 0c22,-26 53,-48 94,-66 41,-18 85,-26 134,-26 94,0 167,32 219,96 53,64 79,143 79,236 0,110 -31,200 -92,271 -62,71 -141,107 -237,107zm13 -654c-96,0 -168,34 -214,102 0,176 3,327 8,452 48,33 108,49 180,49 94,0 163,-30 208,-92 45,-61 67,-135 67,-223 0,-96 -23,-168 -70,-216 -46,-48 -106,-73 -180,-73z"/>
  <path id="12" class="fil2" d="M17736 17658c0,91 28,166 84,225 56,59 132,89 227,89 72,0 132,-7 180,-22l-10 56c-15,5 -37,9 -68,14 -30,5 -63,7 -97,7 -124,0 -218,-33 -280,-98 -63,-65 -94,-146 -94,-242 0,-51 6,-98 19,-142 12,-43 31,-83 56,-119 59,-77 135,-115 227,-115 84,0 148,27 194,81 46,54 69,121 69,200 0,26 -1,47 -3,62l-505 6zm4 -50l441 0c0,-79 -17,-140 -51,-182 -34,-42 -85,-64 -152,-64 -62,0 -115,21 -157,63 -42,42 -69,103 -81,183z"/>
  <path id="13" class="fil2" d="M18805 17403c-38,-15 -77,-23 -118,-23 -44,0 -82,12 -114,37 -32,25 -56,61 -71,108 0,220 2,382 6,484l-69 0c5,-128 7,-244 7,-346 0,-106 -9,-213 -27,-321l62 -16c11,56 17,94 18,114l9 0c29,-41 58,-72 88,-92 30,-20 61,-30 93,-30 37,0 82,8 135,23l-18 62z"/>
  <path id="14" class="fil2" d="M19180 18010l15 -58 29 -22c52,-39 102,-79 149,-121 48,-42 91,-91 131,-149 40,-58 59,-115 59,-173 0,-53 -18,-94 -55,-124 -37,-30 -89,-45 -157,-45 -26,0 -56,1 -90,5 -34,3 -58,7 -71,11l16 -60c14,-4 35,-7 61,-9 27,-2 55,-4 84,-4 83,0 149,19 199,57 50,38 75,89 75,152 0,93 -34,178 -102,255 -68,77 -157,156 -267,237l0 1c162,0 303,-3 423,-8l-13 54 -485 0z"/>
  <path id="15" class="fil2" d="M19856 17644c0,-97 28,-184 85,-260 56,-76 131,-114 223,-114 90,0 162,35 215,106 53,71 79,154 79,248 0,108 -28,201 -83,277 -55,76 -131,114 -229,114 -90,0 -160,-36 -212,-109 -52,-73 -78,-160 -78,-262zm60 -11c0,96 23,176 70,239 46,64 105,95 175,95 76,0 135,-32 175,-96 41,-64 61,-143 61,-236 0,-81 -22,-154 -66,-220 -44,-66 -104,-99 -181,-99 -75,0 -133,33 -173,99 -41,66 -61,138 -61,218z"/>
  <path id="16" class="fil2" d="M20632 18010l15 -58 29 -22c52,-39 102,-79 149,-121 48,-42 91,-91 131,-149 40,-58 59,-115 59,-173 0,-53 -18,-94 -55,-124 -37,-30 -89,-45 -157,-45 -26,0 -56,1 -90,5 -34,3 -58,7 -71,11l16 -60c14,-4 35,-7 61,-9 27,-2 55,-4 84,-4 83,0 149,19 199,57 50,38 75,89 75,152 0,93 -34,178 -102,255 -68,77 -157,156 -267,237l0 1c162,0 303,-3 423,-8l-13 54 -485 0z"/>
  <path id="17" class="fil2" d="M21408 17316c-9,74 -16,137 -21,187 -5,51 -8,92 -8,122 162,2 278,24 348,65 70,41 104,108 104,201 0,68 -23,131 -69,188 -46,57 -108,102 -187,135 -79,33 -162,50 -251,53l-17 -50c134,-7 245,-38 331,-92 87,-55 130,-125 130,-211 0,-65 -16,-113 -48,-146 -32,-33 -78,-54 -139,-66 -61,-12 -149,-17 -263,-17 24,-202 36,-340 36,-416l405 0 -4 63c-108,-11 -224,-16 -346,-16z"/>
  <path class="fil2" d="M11939 19237c0,144 -33,256 -98,337 -67,82 -164,125 -290,131l-15 -85c88,-5 155,-37 202,-96 40,-50 63,-114 69,-194l-5 0c-32,37 -76,55 -133,55 -62,0 -112,-21 -148,-64 -33,-39 -49,-87 -49,-144 0,-62 19,-116 58,-160 43,-49 101,-74 174,-74 64,0 118,23 161,69 50,53 74,128 74,225zm-127 16c0,-74 -12,-131 -37,-169 -21,-32 -47,-48 -80,-48 -31,0 -56,13 -75,39 -17,24 -26,53 -26,87 0,37 10,69 30,95 23,29 53,44 92,44 40,0 72,-16 96,-48z"/>
  <path id="1" class="fil2" d="M12258 19494l-138 0c4,-89 6,-161 6,-216 0,-56 -1,-115 -4,-178l-83 36 -27 -50 182 -140 64 0c-4,142 -6,253 -6,332 0,53 2,125 6,216z"/>
  <path id="2" class="fil2" d="M12798 19383l-11 111 -395 0 11 -104c146,-81 219,-163 219,-245 0,-68 -47,-102 -142,-102 -25,0 -52,2 -80,7l10 -96c30,-8 73,-11 128,-11 71,0 124,15 161,45 37,30 56,71 56,123 0,65 -24,121 -72,167 -48,47 -99,82 -153,106l0 7c76,0 166,-3 269,-8z"/>
  <path id="3" class="fil2" d="M13373 19315l-11 113 -82 0c0,65 2,144 6,238l-137 0c3,-87 5,-167 5,-238l-267 0 -11 -98c0,-6 44,-69 133,-189 89,-120 134,-184 135,-193l142 0c-5,116 -7,240 -7,372 31,0 62,-2 94,-5zm-207 -255l-7 0c0,7 -30,51 -89,131 -59,80 -89,123 -89,128l0 7c44,0 103,-1 176,-3 2,-97 5,-184 9,-263z"/>
  <path id="4" class="fil2" d="M13876 19404c0,72 -33,133 -99,185 -73,57 -171,89 -294,95l-15 -85c84,-7 150,-25 197,-56 47,-30 71,-69 71,-116 0,-50 -21,-86 -62,-108 -42,-22 -111,-33 -207,-33 20,-161 31,-274 31,-339l337 0 -5 113c-66,-7 -148,-11 -245,-11 -8,50 -12,98 -12,144 202,0 302,70 302,211z"/>
  <path id="5" class="fil2" d="M14853 19144c0,106 -32,194 -98,264 -65,70 -145,105 -241,105 -91,0 -168,-32 -229,-96 -62,-64 -92,-146 -92,-244 0,-106 32,-194 97,-264 65,-70 146,-105 241,-105 91,0 168,32 229,96 61,64 92,146 92,245zm-143 15c0,-72 -19,-131 -56,-176 -37,-45 -83,-67 -137,-67 -51,0 -93,23 -129,68 -35,45 -53,102 -53,172 0,72 19,130 56,176 37,45 83,68 137,68 50,0 93,-23 129,-68 35,-45 53,-103 53,-172z"/>
  <path id="6" class="fil2" d="M15446 19227c0,75 -21,141 -64,198 -43,57 -102,85 -177,85 -55,0 -94,-12 -117,-35l-7 0 -10 20 -122 0c5,-121 7,-250 7,-385 0,-127 -6,-242 -17,-344l149 -8c-4,81 -5,172 -5,273l6 0c35,-31 82,-46 142,-46 66,0 119,24 158,72 39,48 58,105 58,171zm-138 13c0,-43 -11,-81 -33,-112 -22,-32 -52,-47 -91,-47 -48,0 -82,14 -105,42 0,118 2,207 8,267 22,17 50,25 84,25 46,0 80,-17 102,-51 22,-34 33,-75 33,-124z"/>
  <path id="7" class="fil2" d="M15990 19195c0,18 -1,41 -3,69l-334 6c5,39 22,72 50,98 29,26 66,39 113,39 52,0 107,-8 165,-23l-10 101c-48,17 -107,26 -177,26 -89,0 -158,-25 -205,-75 -48,-50 -71,-110 -71,-181 0,-74 23,-138 68,-192 45,-54 108,-81 188,-81 73,0 128,20 163,60 36,40 53,91 53,155zm-121 -5c0,-79 -34,-119 -102,-119 -65,0 -103,41 -115,124l217 -4z"/>
  <path id="8" class="fil2" d="M16426 19002l-30 121c-26,-10 -52,-16 -78,-16 -51,0 -84,23 -101,69 0,138 1,244 3,318l-138 0c6,-104 9,-189 9,-255 0,-82 -9,-160 -26,-234l132 -15c6,38 9,60 9,67l8 0c32,-49 74,-73 127,-73 25,0 53,6 84,17z"/>
  <path id="9" class="fil2" d="M16962 19494l-138 0c8,-87 12,-176 12,-266 0,-54 -8,-91 -24,-110 -16,-19 -41,-29 -73,-29 -39,0 -77,13 -112,40 2,135 3,256 3,365l-139 0c6,-108 9,-193 9,-255 0,-83 -8,-161 -25,-234l133 -15 9 55 8 0c47,-41 102,-61 163,-61 53,0 96,13 128,38 32,25 48,71 48,139 0,10 -1,23 -1,40 -1,17 -1,34 -1,52 0,47 1,127 3,242z"/>
  <path id="10" class="fil2" d="M17552 19494l-123 4c-2,-12 -4,-25 -4,-38l-8 0c-38,33 -87,49 -146,49 -66,0 -119,-24 -158,-72 -39,-48 -59,-105 -59,-171 0,-76 21,-142 64,-198 42,-56 102,-84 177,-84 49,0 86,9 110,27l7 0c0,-82 -4,-164 -12,-246l147 -4c-5,81 -8,196 -8,347 0,153 4,282 12,385zm-130 -118c0,-110 -2,-202 -8,-274 -24,-17 -52,-25 -86,-25 -46,0 -79,17 -102,51 -22,34 -33,75 -33,124 0,44 11,81 32,113 21,32 51,47 89,47 51,0 86,-12 107,-37z"/>
  <path id="11" class="fil2" d="M18161 19237c0,87 -27,155 -80,204 -53,49 -117,74 -189,74 -69,0 -129,-22 -178,-67 -49,-45 -74,-108 -74,-189 0,-87 27,-156 81,-205 54,-50 117,-74 190,-74 69,0 128,22 177,68 49,45 74,109 74,190zm-135 16c0,-50 -12,-92 -35,-126 -24,-34 -54,-51 -92,-51 -37,0 -66,16 -89,48 -23,32 -35,72 -35,119 0,50 12,92 35,126 24,34 54,51 92,51 37,0 66,-16 89,-48 23,-32 35,-72 35,-119z"/>
  <path id="12" class="fil2" d="M18597 19002l-30 121c-26,-10 -52,-16 -78,-16 -51,0 -84,23 -101,69 0,138 1,244 3,318l-138 0c6,-104 9,-189 9,-255 0,-82 -9,-160 -26,-234l132 -15c6,38 9,60 9,67l8 0c32,-49 74,-73 127,-73 25,0 53,6 84,17z"/>
  <path id="13" class="fil2" d="M18988 18758l-19 92c-20,-5 -40,-7 -61,-7 -25,0 -42,12 -51,34 -9,23 -14,67 -14,133 31,0 73,-1 127,-4l-4 103c-54,-2 -95,-3 -123,-3 0,130 2,260 8,388l-137 0c5,-127 8,-256 8,-388 -20,0 -51,1 -91,3l4 -103c37,2 65,4 87,4 0,-174 58,-261 175,-261 35,0 65,3 91,9z"/>
  <path class="fil2" d="M11716 14982c-150,-6 -384,-9 -703,-9 3,161 4,362 4,604 216,0 390,-3 521,-9l0 97c-69,-3 -139,-6 -210,-7 -71,-1 -175,-1 -311,-1 0,234 1,398 2,493 2,95 5,163 10,205l-118 0 8 -235c9,-227 13,-405 13,-537 0,-103 -2,-198 -5,-287 -3,-88 -7,-192 -12,-310l-5 -97 811 0 -7 92z"/>
  <path id="1" class="fil2" d="M12033 16355l8 -235c9,-227 13,-405 13,-537 0,-136 -3,-284 -10,-442 -7,-158 -10,-242 -11,-252l797 0 -5 92c-166,-6 -396,-9 -691,-9 3,166 4,357 4,571 235,0 420,-5 553,-13l0 101c-179,-7 -363,-11 -553,-11l0 249c0,162 2,296 6,406 277,0 529,-6 757,-18l-5 99 -864 0z"/>
  <path id="2" class="fil2" d="M13209 15207c0,55 9,98 27,131 18,32 50,65 96,98 46,33 111,66 195,97 83,31 156,63 219,96 63,33 112,68 147,105 35,37 59,76 74,118 14,41 21,88 21,142 0,131 -45,230 -136,296 -91,66 -223,99 -396,99 -136,0 -253,-15 -353,-44l23 -106c64,24 124,41 179,50 56,10 116,14 179,14 141,0 245,-23 312,-70 67,-46 100,-123 100,-229 0,-83 -26,-152 -78,-205 -52,-53 -152,-108 -302,-162 -149,-54 -253,-111 -311,-171 -59,-60 -88,-135 -88,-227 0,-111 41,-200 124,-268 83,-68 184,-101 304,-101 134,0 249,13 343,39l-23 94c-70,-17 -129,-28 -177,-35 -48,-7 -98,-11 -150,-11 -105,0 -186,24 -244,71 -57,48 -86,108 -86,179z"/>
  <path id="3" class="fil2" d="M15070 14979c-166,-3 -273,-5 -325,-5 -8,176 -11,378 -11,608 0,245 3,503 11,774l-117 0c12,-314 18,-571 18,-772 0,-106 -2,-202 -4,-290 -3,-88 -7,-194 -12,-320 -59,0 -147,2 -263,5l-223 6 0 -94 1088 0 -5 92 -157 -3z"/>
  <path id="4" class="fil2" d="M15504 16355c13,-334 19,-591 19,-772 0,-209 -7,-441 -19,-694l118 0c-8,179 -13,409 -13,692 0,251 4,509 13,774l-118 0z"/>
  <path id="5" class="fil2" d="M16783 15621c-69,154 -130,306 -182,456 -53,150 -79,242 -79,278l-99 0c0,-64 -44,-212 -131,-443 -87,-232 -177,-450 -268,-657 -91,-206 -137,-328 -137,-366l118 0c0,55 76,267 229,638 153,371 234,603 243,696l5 0c0,-36 17,-100 51,-193 34,-93 100,-255 198,-486l73 -172c71,-168 120,-285 146,-351 26,-66 39,-110 39,-132l106 0c0,20 -12,60 -37,120 -25,60 -71,164 -138,313l-135 298z"/>
  <path id="6" class="fil2" d="M17392 15821c-69,161 -119,283 -151,369 -31,86 -47,141 -47,166l-120 0c0,-24 104,-262 313,-714 209,-452 313,-702 313,-751l127 0c0,44 103,290 309,736 206,446 309,689 309,729l-116 0c0,-49 -67,-227 -202,-535l-734 0zm372 -839l-10 0c0,22 -111,277 -334,765l673 0c-111,-260 -194,-449 -248,-568 -54,-119 -81,-185 -81,-197z"/>
  <path id="7" class="fil2" d="M18807 15904l1 229c0,65 0,113 -1,142 276,0 523,-4 742,-11l-5 92 -836 0c6,-225 9,-482 9,-772 0,-136 0,-262 -1,-378 -1,-116 -3,-221 -8,-316l116 0c-13,169 -19,400 -19,694 0,83 1,190 2,321z"/>
 </g>
</svg>
