<?xml version="1.0" encoding="UTF-8" standalone="no"?>
<!DOCTYPE svg PUBLIC "-//W3C//DTD SVG 1.1//EN" "http://www.w3.org/Graphics/SVG/1.1/DTD/svg11.dtd">
<!-- Created with Vectornator (http://vectornator.io/) -->
<svg height="100%" stroke-miterlimit="10" style="fill-rule:nonzero;clip-rule:evenodd;stroke-linecap:round;stroke-linejoin:round;" version="1.1" viewBox="0 0 130.973 73.451" width="100%" xml:space="preserve" xmlns="http://www.w3.org/2000/svg" xmlns:vectornator="http://vectornator.io" xmlns:xlink="http://www.w3.org/1999/xlink">
<defs/>
<g id="Untitled" vectornator:layerName="Untitled">
<path d="M4.755 30.904L44.44 30.904L44.44 30.904L44.44 39.408L44.44 39.408L4.755 39.408L4.755 39.408L4.755 30.904L4.755 30.904Z" fill="#647516" fill-rule="nonzero" opacity="1" stroke="none"/>
<path d="M13.259 21.709L44.44 21.709L44.44 21.709L44.44 30.213L44.44 30.213L13.259 30.213L13.259 30.213L13.259 21.709L13.259 21.709Z" fill="#e3be00" fill-rule="nonzero" opacity="1" stroke="none"/>
<path d="M86.75 30.904L117.931 30.904L117.931 30.904L117.931 39.408L117.931 39.408L86.75 39.408L86.75 39.408L86.75 30.904L86.75 30.904Z" fill="#8bb31d" fill-rule="nonzero" opacity="1" stroke="none"/>
<path d="M86.75 21.709L126.435 21.709L126.435 21.709L126.435 30.213L126.435 30.213L86.75 30.213L86.75 30.213L86.75 21.709L86.75 21.709Z" fill="#449dd7" fill-rule="nonzero" opacity="1" stroke="none"/>
<path d="M45.009 30.904L76.19 30.904L76.19 30.904L76.19 39.408L76.19 39.408L45.009 39.408L45.009 39.408L45.009 30.904L45.009 30.904Z" fill="#903900" fill-rule="nonzero" opacity="1" stroke="none"/>
<path d="M86.092 11.779L86.074 11.779L86.074 11.965L49.758 7.303L49.758 21.176L76.898 21.158L76.898 39.469L86.092 39.469L86.092 11.779Z" fill="#d2091e" fill-rule="nonzero" opacity="1" stroke="none"/>
<path d="M45.009 21.734L76.19 21.734L76.19 21.734L76.19 30.238L76.19 30.238L45.009 30.238L45.009 30.238L45.009 21.734L45.009 21.734Z" fill="#a4dbf8" fill-rule="nonzero" opacity="1" stroke="none"/>
<g opacity="1">
<path d="M37.811 61.967L36.236 67.626L35.081 67.626L34.104 64.077C34.041 63.846 34.002 63.604 33.988 63.352L33.967 63.352C33.946 63.527 33.904 63.768 33.841 64.077L32.843 67.626L31.688 67.626L30.113 61.967L31.405 61.967L32.235 65.631C32.298 65.898 32.333 66.146 32.34 66.377L32.361 66.377C32.396 66.188 32.445 65.939 32.508 65.631L33.506 61.967L34.577 61.967L35.533 65.631C35.589 65.856 35.635 66.104 35.67 66.377L35.691 66.377C35.698 66.243 35.736 65.991 35.806 65.62L36.678 61.967C36.678 61.967 37.811 61.967 37.811 61.967Z" fill="#706f6f" fill-rule="nonzero" opacity="1" stroke="none"/>
<path d="M40.256 60.36C40.256 60.535 40.188 60.683 40.051 60.806C39.914 60.928 39.748 60.99 39.552 60.99C39.356 60.99 39.19 60.928 39.053 60.806C38.917 60.683 38.848 60.535 38.848 60.36C38.848 60.185 38.916 60.034 39.053 59.908C39.19 59.782 39.356 59.72 39.552 59.72C39.748 59.72 39.914 59.782 40.051 59.904C40.188 60.026 40.256 60.178 40.256 60.36ZM40.193 67.626L38.912 67.626L38.912 61.967L40.193 61.967L40.193 67.626Z" fill="#706f6f" fill-rule="nonzero" opacity="1" stroke="none"/>
<path d="M44.436 61.872L44.184 62.807C43.995 62.744 43.799 62.712 43.596 62.712C43.351 62.712 43.148 62.758 42.987 62.849L42.987 67.626L41.706 67.626L41.706 62.271C42.329 61.97 43.238 61.837 44.436 61.872Z" fill="#706f6f" fill-rule="nonzero" opacity="1" stroke="none"/>
<path d="M55.65 61.967L54.075 67.626L52.92 67.626L51.943 64.077C51.88 63.846 51.841 63.604 51.827 63.352L51.806 63.352C51.785 63.527 51.743 63.768 51.68 64.077L50.682 67.626L49.527 67.626L47.952 61.967L49.244 61.967L50.074 65.631C50.137 65.898 50.172 66.146 50.179 66.377L50.2 66.377C50.235 66.188 50.284 65.939 50.347 65.631L51.345 61.967L52.416 61.967L53.372 65.631C53.428 65.856 53.474 66.104 53.509 66.377L53.53 66.377C53.537 66.243 53.575 65.991 53.645 65.62L54.517 61.967C54.517 61.967 55.65 61.967 55.65 61.967Z" fill="#706f6f" fill-rule="nonzero" opacity="1" stroke="none"/>
<path d="M58.096 60.36C58.096 60.535 58.028 60.683 57.891 60.806C57.754 60.928 57.588 60.99 57.392 60.99C57.196 60.99 57.03 60.928 56.893 60.806C56.757 60.683 56.688 60.535 56.688 60.36C56.688 60.185 56.756 60.034 56.893 59.908C57.03 59.782 57.196 59.72 57.392 59.72C57.588 59.72 57.754 59.782 57.891 59.904C58.028 60.026 58.096 60.178 58.096 60.36ZM58.033 67.626L56.752 67.626L56.752 61.967L58.033 61.967L58.033 67.626Z" fill="#706f6f" fill-rule="nonzero" opacity="1" stroke="none"/>
<path d="M62.778 65.998C62.778 66.475 62.592 66.881 62.222 67.217C61.851 67.553 61.365 67.721 60.763 67.721C60.119 67.721 59.597 67.584 59.199 67.311L59.535 66.493C59.808 66.717 60.161 66.829 60.596 66.829C60.855 66.829 61.065 66.754 61.226 66.602C61.387 66.452 61.467 66.26 61.467 66.029C61.467 65.791 61.404 65.603 61.278 65.467C61.152 65.329 60.939 65.205 60.638 65.093C59.777 64.763 59.346 64.234 59.346 63.504C59.346 63.041 59.512 62.651 59.845 62.336C60.178 62.021 60.61 61.862 61.142 61.862C61.716 61.862 62.206 61.995 62.612 62.261L62.297 63.006C62.038 62.796 61.737 62.692 61.394 62.692C61.142 62.692 60.944 62.763 60.801 62.907C60.658 63.051 60.586 63.227 60.586 63.437C60.586 63.808 60.866 64.106 61.426 64.33C62.327 64.693 62.778 65.25 62.778 65.998Z" fill="#706f6f" fill-rule="nonzero" opacity="1" stroke="none"/>
<path d="M67.241 65.998C67.241 66.475 67.055 66.881 66.684 67.217C66.313 67.553 65.827 67.721 65.225 67.721C64.581 67.721 64.059 67.584 63.661 67.311L63.997 66.493C64.27 66.717 64.623 66.829 65.058 66.829C65.317 66.829 65.527 66.754 65.688 66.602C65.849 66.452 65.929 66.26 65.929 66.029C65.929 65.791 65.866 65.603 65.74 65.467C65.614 65.329 65.401 65.205 65.1 65.093C64.239 64.763 63.808 64.234 63.808 63.504C63.808 63.041 63.974 62.651 64.307 62.336C64.64 62.021 65.072 61.862 65.604 61.862C66.178 61.862 66.667 61.995 67.074 62.261L66.76 63.006C66.501 62.796 66.199 62.692 65.857 62.692C65.605 62.692 65.407 62.763 65.264 62.907C65.121 63.051 65.049 63.227 65.049 63.437C65.049 63.808 65.329 64.106 65.889 64.33C66.79 64.693 67.241 65.25 67.241 65.998Z" fill="#706f6f" fill-rule="nonzero" opacity="1" stroke="none"/>
<path d="M72.932 64.76L69.467 65.264C69.571 66.314 70.086 66.839 71.01 66.839C71.556 66.839 72.031 66.734 72.438 66.524L72.743 67.333C72.261 67.599 71.638 67.732 70.874 67.732C70.062 67.732 69.422 67.476 68.952 66.965C68.483 66.453 68.249 65.726 68.249 64.78C68.249 63.863 68.465 63.147 68.895 62.633C69.325 62.119 69.915 61.862 70.665 61.862C71.421 61.862 71.994 62.109 72.386 62.602C72.778 63.096 72.959 63.814 72.932 64.76ZM71.735 64.256C71.735 63.185 71.364 62.65 70.622 62.65C70.23 62.65 69.929 62.807 69.72 63.122C69.489 63.466 69.38 63.963 69.394 64.613L71.735 64.256Z" fill="#706f6f" fill-rule="nonzero" opacity="1" stroke="none"/>
<path d="M78.665 67.626L77.384 67.626L77.384 63.623C77.384 62.995 77.045 62.681 76.366 62.681C76.044 62.681 75.75 62.734 75.483 62.838L75.483 67.626L74.203 67.626L74.203 62.271C74.784 61.999 75.522 61.862 76.419 61.862C77.21 61.862 77.794 62.037 78.172 62.387C78.501 62.681 78.665 63.083 78.665 63.594C78.665 63.594 78.665 67.626 78.665 67.626Z" fill="#706f6f" fill-rule="nonzero" opacity="1" stroke="none"/>
<path d="M90.404 61.967L88.829 67.626L87.675 67.626L86.698 64.077C86.635 63.846 86.596 63.604 86.582 63.352L86.561 63.352C86.54 63.527 86.498 63.768 86.434 64.077L85.437 67.626L84.282 67.626L82.708 61.967L83.999 61.967L84.829 65.631C84.891 65.898 84.927 66.146 84.933 66.377L84.954 66.377C84.989 66.188 85.038 65.939 85.101 65.631L86.098 61.967L87.169 61.967L88.125 65.631C88.181 65.856 88.227 66.104 88.262 66.377L88.283 66.377C88.29 66.243 88.329 65.991 88.398 65.62L89.27 61.967C89.27 61.967 90.404 61.967 90.404 61.967Z" fill="#706f6f" fill-rule="nonzero" opacity="1" stroke="none"/>
<path d="M92.85 60.36C92.85 60.535 92.782 60.683 92.645 60.806C92.508 60.928 92.342 60.99 92.147 60.99C91.951 60.99 91.785 60.928 91.648 60.806C91.512 60.683 91.444 60.535 91.444 60.36C91.444 60.185 91.512 60.034 91.648 59.908C91.785 59.782 91.951 59.72 92.147 59.72C92.342 59.72 92.508 59.782 92.645 59.904C92.782 60.026 92.85 60.178 92.85 60.36ZM92.788 67.626L91.507 67.626L91.507 61.967L92.788 61.967L92.788 67.626Z" fill="#706f6f" fill-rule="nonzero" opacity="1" stroke="none"/>
<path d="M98.772 64.76L95.307 65.264C95.412 66.314 95.926 66.839 96.85 66.839C97.397 66.839 97.872 66.734 98.279 66.524L98.583 67.333C98.101 67.599 97.478 67.732 96.715 67.732C95.903 67.732 95.263 67.476 94.793 66.965C94.324 66.453 94.09 65.726 94.09 64.78C94.09 63.863 94.306 63.147 94.736 62.633C95.167 62.119 95.756 61.862 96.506 61.862C97.262 61.862 97.836 62.109 98.228 62.602C98.618 63.096 98.8 63.814 98.772 64.76ZM97.575 64.256C97.575 63.185 97.204 62.65 96.463 62.65C96.071 62.65 95.77 62.807 95.56 63.122C95.33 63.466 95.22 63.963 95.235 64.613L97.575 64.256Z" fill="#706f6f" fill-rule="nonzero" opacity="1" stroke="none"/>
<path d="M101.523 66.923C101.523 67.133 101.448 67.313 101.297 67.463C101.147 67.614 100.966 67.69 100.756 67.69C100.539 67.69 100.356 67.615 100.205 67.463C100.055 67.313 99.978 67.133 99.978 66.923C99.978 66.706 100.054 66.522 100.205 66.371C100.356 66.22 100.539 66.145 100.756 66.145C100.966 66.145 101.147 66.22 101.297 66.371C101.447 66.522 101.523 66.706 101.523 66.923Z" fill="#706f6f" fill-rule="nonzero" opacity="1" stroke="none"/>
</g>
<g opacity="1">
<path d="M40.423 48.557L38.173 56.642L36.523 56.642L35.128 51.572C35.038 51.242 34.983 50.897 34.963 50.537L34.933 50.537C34.903 50.788 34.843 51.133 34.753 51.572L33.328 56.642L31.678 56.642L29.428 48.557L31.273 48.557L32.458 53.792C32.548 54.172 32.598 54.526 32.608 54.856L32.638 54.856C32.688 54.586 32.758 54.231 32.848 53.792L34.273 48.557L35.803 48.557L37.168 53.792C37.248 54.111 37.313 54.467 37.363 54.856L37.393 54.856C37.403 54.667 37.458 54.306 37.558 53.776L38.803 48.556L40.423 48.556L40.423 48.557Z" fill="#006eab" fill-rule="nonzero" opacity="1" stroke="none"/>
<path d="M48.328 52.547L43.378 53.267C43.528 54.767 44.263 55.517 45.583 55.517C46.363 55.517 47.043 55.367 47.623 55.067L48.058 56.222C47.368 56.602 46.477 56.792 45.388 56.792C44.228 56.792 43.313 56.427 42.643 55.696C41.973 54.967 41.638 53.926 41.638 52.576C41.638 51.266 41.946 50.244 42.561 49.509C43.176 48.775 44.018 48.406 45.088 48.406C46.168 48.406 46.988 48.759 47.548 49.464C48.108 50.169 48.368 51.196 48.328 52.547ZM46.618 51.826C46.618 50.297 46.088 49.531 45.028 49.531C44.468 49.531 44.038 49.757 43.738 50.207C43.408 50.696 43.253 51.406 43.273 52.337L46.618 51.826Z" fill="#006eab" fill-rule="nonzero" opacity="1" stroke="none"/>
<path d="M56.743 52.411C56.743 53.782 56.402 54.854 55.721 55.629C55.039 56.404 54.072 56.792 52.819 56.792C51.636 56.792 50.744 56.597 50.143 56.207L50.143 44.866L51.973 44.866L51.973 48.781C52.453 48.561 52.983 48.451 53.563 48.451C54.513 48.451 55.28 48.811 55.865 49.531C56.451 50.252 56.743 51.212 56.743 52.411ZM54.913 52.517C54.913 50.517 54.296 49.517 53.062 49.517C52.624 49.517 52.261 49.597 51.973 49.757L51.973 55.502C52.222 55.611 52.53 55.667 52.898 55.667C54.241 55.667 54.913 54.616 54.913 52.517Z" fill="#006eab" fill-rule="nonzero" opacity="1" stroke="none"/>
<path d="M64.918 52.547L59.968 53.267C60.118 54.767 60.853 55.517 62.173 55.517C62.953 55.517 63.633 55.367 64.213 55.067L64.648 56.222C63.958 56.602 63.067 56.792 61.978 56.792C60.818 56.792 59.903 56.427 59.233 55.696C58.563 54.967 58.228 53.926 58.228 52.576C58.228 51.266 58.536 50.244 59.151 49.509C59.766 48.775 60.608 48.406 61.678 48.406C62.758 48.406 63.578 48.759 64.138 49.464C64.698 50.169 64.958 51.196 64.918 52.547ZM63.208 51.826C63.208 50.297 62.678 49.531 61.618 49.531C61.058 49.531 60.628 49.757 60.328 50.207C59.998 50.696 59.843 51.406 59.863 52.337L63.208 51.826Z" fill="#006eab" fill-rule="nonzero" opacity="1" stroke="none"/>
<path d="M70.633 48.422L70.273 49.757C70.002 49.667 69.723 49.622 69.432 49.622C69.082 49.622 68.793 49.686 68.563 49.816L68.563 56.641L66.733 56.641L66.733 48.991C67.623 48.562 68.922 48.372 70.633 48.422Z" fill="#006eab" fill-rule="nonzero" opacity="1" stroke="none"/>
</g>
<g opacity="1">
<path d="M76.093 52.292L72.433 52.292L72.433 50.896L76.093 50.896L76.093 52.292Z" fill="#000000" fill-rule="nonzero" opacity="1" stroke="none"/>
<path d="M84.614 52.411C84.614 53.782 84.272 54.854 83.591 55.629C82.909 56.404 81.943 56.792 80.69 56.792C79.507 56.792 78.615 56.597 78.014 56.207L78.014 44.866L79.844 44.866L79.844 48.781C80.323 48.561 80.854 48.451 81.434 48.451C82.384 48.451 83.152 48.811 83.736 49.531C84.321 50.252 84.614 51.212 84.614 52.411ZM82.784 52.517C82.784 50.517 82.167 49.517 80.932 49.517C80.494 49.517 80.131 49.597 79.843 49.757L79.843 55.502C80.092 55.611 80.401 55.667 80.768 55.667C82.112 55.667 82.784 54.616 82.784 52.517Z" fill="#000000" fill-rule="nonzero" opacity="1" stroke="none"/>
<path d="M92.249 56.207C91.519 56.597 90.544 56.792 89.323 56.792C87.123 56.792 86.023 55.972 86.023 54.332C86.023 53.352 86.467 52.616 87.358 52.127C88.057 51.747 89.118 51.486 90.538 51.347L90.538 50.911C90.538 50.021 90.003 49.576 88.933 49.576C88.263 49.576 87.589 49.741 86.909 50.071L86.489 49.021C87.329 48.611 88.254 48.406 89.263 48.406C91.253 48.406 92.249 49.337 92.249 51.196C92.249 51.196 92.249 56.207 92.249 56.207ZM90.538 55.547L90.538 52.217C89.578 52.337 88.897 52.522 88.499 52.772C87.998 53.083 87.749 53.583 87.749 54.272C87.749 55.272 88.313 55.772 89.443 55.772C89.873 55.771 90.238 55.696 90.538 55.547Z" fill="#000000" fill-rule="nonzero" opacity="1" stroke="none"/>
<path d="M100.557 56.161C99.747 56.592 98.713 56.807 97.453 56.807C95.363 56.807 94.318 55.897 94.318 54.077L94.318 48.557L96.148 48.557L96.148 54.169C96.148 55.077 96.602 55.531 97.512 55.531C98.012 55.531 98.417 55.441 98.727 55.261L98.727 48.556L100.557 48.556L100.557 56.161Z" fill="#000000" fill-rule="nonzero" opacity="1" stroke="none"/>
</g>
</g>
</svg>
